<?xml version="1.0" encoding="utf-8"?>
<!-- Generator: Adobe Illustrator 22.0.0, SVG Export Plug-In . SVG Version: 6.00 Build 0)  -->
<svg version="1.1" id="Layer_1" xmlns="http://www.w3.org/2000/svg" xmlns:xlink="http://www.w3.org/1999/xlink" x="0px" y="0px"
	 viewBox="0 0 3000 2000" style="enable-background:new 0 0 3000 2000;" xml:space="preserve">
<style type="text/css">
	.st0{fill:#FFDD33;}
	.st1{fill:#E9ECEE;}
</style>
<rect class="st0" width="3000" height="2000"/>
<g>
	<g>
		<polygon class="st1" points="-129.5,2000 -337.1,2000 128,998.4 335.7,998.4 		"/>
		<polygon class="st1" points="287.3,2000 79.6,2000 544.8,998.4 752.4,998.4 		"/>
		<polygon class="st1" points="704,2000 496.4,2000 961.5,998.4 1169.2,998.4 		"/>
		<polygon class="st1" points="1120.8,2000 913.2,2000 1378.3,998.4 1585.9,998.4 		"/>
		<polygon class="st1" points="1537.6,2000 1329.9,2000 1795.1,998.4 2002.7,998.4 		"/>
		<polygon class="st1" points="1954.3,2000 1746.7,2000 2211.8,998.4 2419.5,998.4 		"/>
		<polygon class="st1" points="2371.1,2000 2163.4,2000 2628.6,998.4 2836.2,998.4 		"/>
		<polygon class="st1" points="2787.8,2000 2580.2,2000 3045.4,998.4 3253,998.4 		"/>
	</g>
</g>
</svg>
