<?xml version="1.0" encoding="utf-8"?>
<!-- Generator: Adobe Illustrator 22.0.0, SVG Export Plug-In . SVG Version: 6.00 Build 0)  -->
<svg version="1.1" id="Layer_1" xmlns="http://www.w3.org/2000/svg" xmlns:xlink="http://www.w3.org/1999/xlink" x="0px" y="0px"
	 viewBox="0 0 3000 1000" style="enable-background:new 0 0 3000 1000;" xml:space="preserve">
<style type="text/css">
	.st0{fill:#162C3E;}
	.st1{fill:#203F58;}
</style>
<rect class="st0" width="3000" height="1000"/>
<g>
	<g>
		<polygon class="st1" points="-129.5,1001.6 -337.1,1001.6 128,0 335.7,0 		"/>
		<polygon class="st1" points="287.3,1001.6 79.6,1001.6 544.8,0 752.4,0 		"/>
		<polygon class="st1" points="704,1001.6 496.4,1001.6 961.5,0 1169.2,0 		"/>
		<polygon class="st1" points="1120.8,1001.6 913.2,1001.6 1378.3,0 1585.9,0 		"/>
		<polygon class="st1" points="1537.6,1001.6 1329.9,1001.6 1795.1,0 2002.7,0 		"/>
		<polygon class="st1" points="1954.3,1001.6 1746.7,1001.6 2211.8,0 2419.5,0 		"/>
		<polygon class="st1" points="2371.1,1001.6 2163.4,1001.6 2628.6,0 2836.2,0 		"/>
		<polygon class="st1" points="2787.8,1001.6 2580.2,1001.6 3045.4,0 3253,0 		"/>
	</g>
</g>
</svg>
