<?xml version="1.0" encoding="utf-8"?>
<!-- Generator: Adobe Illustrator 22.0.0, SVG Export Plug-In . SVG Version: 6.00 Build 0)  -->
<svg version="1.1" id="Layer_1" xmlns="http://www.w3.org/2000/svg" xmlns:xlink="http://www.w3.org/1999/xlink" x="0px" y="0px"
	 viewBox="0 0 3000 2000" style="enable-background:new 0 0 3000 2000;" xml:space="preserve">
<style type="text/css">
	.st0{fill:#FFDD33;}
	.st1{fill:#E9ECEE;}
</style>
<rect class="st0" width="3000" height="2000"/>
<g>
	<g>
		<polygon class="st1" points="-129.5,1999.5 -337.1,1999.5 128,997.9 335.7,997.9 		"/>
		<polygon class="st1" points="287.3,1999.5 79.6,1999.5 544.8,997.9 752.4,997.9 		"/>
		<polygon class="st1" points="704,1999.5 496.4,1999.5 961.5,997.9 1169.2,997.9 		"/>
		<polygon class="st1" points="1120.8,1999.5 913.2,1999.5 1378.3,997.9 1585.9,997.9 		"/>
		<polygon class="st1" points="1537.6,1999.5 1329.9,1999.5 1795.1,997.9 2002.7,997.9 		"/>
		<polygon class="st1" points="1954.3,1999.5 1746.7,1999.5 2211.8,997.9 2419.5,997.9 		"/>
		<polygon class="st1" points="2371.1,1999.5 2163.4,1999.5 2628.6,997.9 2836.2,997.9 		"/>
		<polygon class="st1" points="2787.8,1999.5 2580.2,1999.5 3045.4,997.9 3253,997.9 		"/>
	</g>
</g>
</svg>
