<?xml version="1.0" encoding="utf-8"?>
<!-- Generator: Adobe Illustrator 22.0.0, SVG Export Plug-In . SVG Version: 6.00 Build 0)  -->
<svg version="1.1" id="Layer_1" xmlns="http://www.w3.org/2000/svg" xmlns:xlink="http://www.w3.org/1999/xlink" x="0px" y="0px"
	 viewBox="0 0 1200 803.8" style="enable-background:new 0 0 1200 803.8;" xml:space="preserve">
<style type="text/css">
	.st0{fill:#FFDD33;}
	.st1{fill:#203F58;}
	.st2{fill:#FFFFFF;}
</style>
<rect y="0.5" class="st0" width="1200" height="802.8"/>
<g>
	<g>
		<g>
			<g>
				<path class="st1" d="M388.9,365.1c0-31.1,22.3-56.5,54.7-56.5c32.7,0,53,23.6,53,53.9v8.8h-86.5c2.4,18.5,16.6,31.6,36,31.6
					c13.2,0,25.2-5.7,31.6-17.7l16.8,8.6c-9.5,18.5-26.9,28.5-48.1,28.5C413.4,422.3,388.9,398.5,388.9,365.1z M474.8,357.2
					c-0.9-17.2-13.5-28.9-31.3-28.9c-18.3,0-30.2,12.8-32.5,28.9H474.8z"/>
			</g>
		</g>
		<g>
			<g>
				<path class="st1" d="M505.6,365.6c0-31.1,25.4-56.7,56.5-56.5c19.9,0,38.2,9.1,48.1,28.5l-18.1,10.2
					c-6.4-11.7-17.2-17.9-30-17.9c-19,0-34.7,16.1-34.7,35.8c0,19.9,15.7,36.2,34.7,36.2c12.8,0,23.6-6.2,30-17.9l18.1,9.9
					c-9.9,19.6-28.3,28.5-48.1,28.5C531,422.7,505.6,396.9,505.6,365.6z"/>
			</g>
		</g>
		<g>
			<g>
				<path class="st1" d="M619.1,419.9v-64.5c0-26.3,15-45.9,43.3-45.9c6.8,0,13.9,1.3,19.4,4v21.6c-5.3-3.1-11.5-4.6-17.4-4.6
					c-14.6,0-23.4,9.9-23.4,25.8v63.6H619.1z"/>
			</g>
		</g>
		<g>
			<g>
				<path class="st1" d="M773.8,363.8v-52.1h21.9v54.7c0,31.3-19,56.1-53,56.1c-33.6,0-52.5-24.9-52.5-56.3v-54.5H712V364
					c0,19.9,10.8,37.3,30.7,37.3C762.7,401.3,773.8,383.9,773.8,363.8z"/>
			</g>
		</g>
		<g>
			<g>
				<path class="st1" d="M810.4,275.9c0-7.9,6.4-14.6,14.3-14.6s14.1,6.6,14.1,14.6s-6.2,14.3-14.1,14.3S810.4,283.9,810.4,275.9z
					 M835.8,311.7v108.2H814V311.7H835.8z"/>
			</g>
		</g>
		<g>
			<g>
				<path class="st1" d="M869,381v-50.3h-21.4v-19H869v-28h21.9v28h41.5v19h-41.5v49.7c0,14.1,8.4,22.5,21.4,22.5
					c7.1,0,14.8-2.6,20.1-6.4v20.1c-5.5,3.8-14.1,6.2-22.1,6.2C883.4,422.7,869,405.7,869,381z"/>
			</g>
		</g>
		<g>
			<g>
				<path class="st1" d="M388.9,419.9l-31.6-47.7c15.5-10.2,25.5-27.7,25.5-47.5c0-30.9-24.7-56.5-57.4-56.5
					c-32.5,0-57.8,25.4-57.8,56.5l0,0l0,0V420h21.9v-50.5c9.8,7.6,22.2,12.2,36,12.2c3.2,0,6.4-0.3,9.4-0.8l25.9,39.1h28.1V419.9z"
					/>
			</g>
		</g>
		<g>
			<circle class="st2" cx="325.2" cy="324.8" r="43.4"/>
		</g>
		<g>
			<g>
				<path class="st1" d="M262.4,491.6c0-25.3,19.9-45.4,44.7-45.4c15.1,0,28.8,7.7,35.5,20.6l-10.9,6.3
					c-5.1-8.8-13.9-14.2-25.2-14.2c-17,0-30.4,14.2-30.4,32.7c0,18.8,13.2,33,30.4,33c11.3,0,20.2-5.4,25.2-14.2l10.9,6.3
					c-6.7,12.9-20.5,20.5-35.5,20.5C282.3,537.3,262.4,517.2,262.4,491.6z"/>
			</g>
		</g>
		<g>
			<g>
				<path class="st1" d="M346.5,503.4c0-18.5,15.1-33.6,34.4-33.6c19.4,0,34.1,15.2,34.1,33.6c0,18.6-14.8,33.8-34.1,33.8
					C361.4,537.3,346.5,522.1,346.5,503.4z M402,503.6c0-11.8-9.2-21.5-21.1-21.5c-12.1,0-21.4,9.7-21.4,21.5
					c0,11.7,9.3,21.4,21.4,21.4C392.8,525,402,515.2,402,503.6z"/>
			</g>
		</g>
		<g>
			<g>
				<path class="st1" d="M530.9,501.9v33.8h-13V504c0-11.7-5.8-21.9-17.8-21.9c-11.7,0-17.6,9.8-17.6,21.6v32h-13v-32
					c0-11.8-5.9-21.6-17.8-21.6c-12.1,0-17.4,10.2-17.4,21.9v31.7h-13V502c0-18,10.2-32.4,29.5-32.4c12.8,0,22.2,6.6,25.4,16.5
					c3.5-10,12.6-16.5,24.8-16.5C520.4,469.6,530.9,484,530.9,501.9z"/>
			</g>
		</g>
		<g>
			<g>
				<path class="st1" d="M541.4,565.2v-61.8c0-19.1,14.8-33.6,34.2-33.6s34.1,15.2,34.1,33.6c0,19.4-14,33.8-33.6,33.8
					c-8.7,0-16.5-3.8-21.8-9.6v37.5L541.4,565.2L541.4,565.2z M596.7,503.6c0-11.8-9.2-21.4-21.1-21.4c-12.1,0-21.2,9.6-21.2,21.4
					c0,11.7,9.2,21.5,21.2,21.5C587.5,525.1,596.7,515.2,596.7,503.6z"/>
			</g>
		</g>
		<g>
			<g>
				<path class="st1" d="M632.1,441.9v93.8h-13v-93.8L632.1,441.9L632.1,441.9z"/>
			</g>
		</g>
		<g>
			<g>
				<path class="st1" d="M641.7,450.2c0-4.7,3.8-8.7,8.5-8.7s8.4,3.9,8.4,8.7c0,4.7-3.7,8.5-8.4,8.5S641.7,454.9,641.7,450.2z
					 M656.8,471.4v64.3h-13v-64.3L656.8,471.4L656.8,471.4z"/>
			</g>
		</g>
		<g>
			<g>
				<path class="st1" d="M664,503.4c0-18.4,14.7-33.6,34.2-33.6c19.4,0,34.2,14.4,34.2,33.6v32.3h-12.3v-11.3
					c-4.9,7.9-13.4,12.9-23.9,12.9C677.7,537.3,664,522.1,664,503.4z M719.5,503.6c0-11.8-9.2-21.5-21.2-21.5
					c-11.9,0-21.2,9.7-21.2,21.5c0,11.7,9.3,21.4,21.2,21.4C710.3,525,719.5,515.2,719.5,503.6z"/>
			</g>
		</g>
		<g>
			<g>
				<path class="st1" d="M754.2,504.6v31.1h-13v-32.4c0-18.8,11.1-33.4,31.9-33.4c21,0,32.4,14.7,32.4,33.3v32.5h-13v-30.9
					c0-12.1-6.6-22.4-19.4-22.4C760.5,482.3,754.2,492.7,754.2,504.6z"/>
			</g>
		</g>
		<g>
			<g>
				<path class="st1" d="M810.2,503.4c0-18.5,15.1-33.7,33.6-33.6c11.8,0,22.7,5.4,28.6,16.9l-10.8,6c-3.8-7-10.2-10.6-17.8-10.6
					c-11.3,0-20.6,9.6-20.6,21.2c0,11.8,9.3,21.5,20.6,21.5c7.6,0,14-3.7,17.8-10.6l10.8,5.9c-5.9,11.7-16.8,16.9-28.6,16.9
					C825.3,537.4,810.2,522.1,810.2,503.4z"/>
			</g>
		</g>
		<g>
			<g>
				<path class="st1" d="M873.6,503.2c0-18.5,13.2-33.6,32.5-33.6c19.4,0,31.5,14,31.5,32v5.2h-51.4c1.4,11,9.8,18.8,21.4,18.8
					c7.9,0,14.9-3.4,18.8-10.5l10,5.1c-5.6,11-16,16.9-28.6,16.9C888.2,537.1,873.6,523,873.6,503.2z M924.6,498.5
					c-0.5-10.2-8-17.2-18.6-17.2c-10.9,0-18,7.6-19.3,17.2H924.6z"/>
			</g>
		</g>
	</g>
</g>
</svg>
