<?xml version="1.0" encoding="utf-8"?>
<!-- Generator: Adobe Illustrator 22.0.0, SVG Export Plug-In . SVG Version: 6.00 Build 0)  -->
<svg version="1.1" id="Layer_1" xmlns="http://www.w3.org/2000/svg" xmlns:xlink="http://www.w3.org/1999/xlink" x="0px" y="0px"
	 viewBox="0 0 1200 1200" style="enable-background:new 0 0 1200 1200;" xml:space="preserve">
<style type="text/css">
	.st0{fill:#FFFFFF;}
	.st1{fill:#1A1A1A;}
	.st2{opacity:0;fill:#1A1A1A;}
</style>
<rect class="st0" width="1200" height="1200"/>
<g>
	<g>
		<path class="st1" d="M286,734.3c-21.8,0-36-15-36-38.1c0-23.1,14.4-37.6,36-37.6c17.3,0,31.2,8.5,34.7,27.3h-16.9
			c-1.6-7.9-7.7-14.6-17-14.6h-1.3c-12.7,0-18.5,11.3-18.5,24.8c0,13.6,5.8,25.4,18.5,25.4h1.3c10.5,0,16-7.8,17.2-16.2h16.9
			C318.8,722.3,304.3,734.3,286,734.3z"/>
		<path class="st1" d="M398,696.2c0,23.1-14.7,38.1-36.1,38.1s-36-15-36-38.1c0-23.1,14.6-37.6,36-37.6S398,673.1,398,696.2z
			 M381.2,696.2c0-13.6-5.9-24.8-18.6-24.8h-1.3c-12.9,0-18.5,11.7-18.5,24.8c0,13.3,5.6,25.4,18.5,25.4h1.3
			C375.4,721.6,381.2,710.1,381.2,696.2z"/>
		<path class="st1" d="M510.6,682.8v49.8h-16.2v-46.5c0-11.3-6.8-14.2-13.7-14.2h-1c-7.1,0-13.9,4.5-13.9,16.5l0.1,44.2h-16.3v-46.4
			c0-11.4-6.8-14.3-13.7-14.3h-1c-6.9,0-13.7,4.5-13.7,16.6v44.1h-16.3v-72.2h16.2v1.4c0,3.8-0.3,4.9-1.6,8.5l2,0.6
			c3.3-8.5,12-12.3,21.5-12.3c10,0,18.1,4.2,20.1,13.6h1.7c3.2-8.7,11.4-13.6,22.7-13.6C497.4,658.6,510.6,663.5,510.6,682.8z"/>
		<path class="st1" d="M592.9,696.3c0,24.4-14.4,38-31.3,38c-12.7,0-20.7-6.8-23.7-14l-1.9,0.4c1.3,4.5,1.7,7.4,1.7,11.3v24.4h-16.3
			v-96.1h16.3v1.6c0,2.9-0.6,6.4-1.7,9.8l1.9,0.6c3-7.5,11.3-13.7,23.7-13.7C578.4,658.6,592.9,671.9,592.9,696.3z M556.1,671.3
			c-12.9,0-19.4,10.1-19.4,25s6.5,25.1,19.4,25.1h0.9c12.7,0,19.1-10.3,19.1-25.1s-6.2-25-19.1-25H556.1z"/>
		<path class="st1" d="M618.2,636.5v96.1H602v-96.1H618.2z"/>
		<path class="st1" d="M629,644.7c0-5.2,4.5-9.5,10-9.5c5.3,0,9.7,4.3,9.7,9.5c0,5.5-4.3,9.8-9.7,9.8
			C633.4,654.5,629,650.2,629,644.7z M646.9,660.4v72.2h-16.2v-72.2H646.9z"/>
		<path class="st1" d="M718.1,683.2v49.4h-16c0-3.9,0.4-7.4,1.4-11.3l-1.7-0.6c-4,9.2-14.9,13.6-24.1,13.6c-6.1,0-11.6-1.7-15.9-4.8
			c-4.9-3.6-8.1-9.2-8.1-16.5c0-7.2,2.9-13,8.4-16.9c4.3-2.7,10-4.8,17.2-5.6l6.6-0.7c10.3-1.3,16.2-3.5,16.2-9.8
			c0-5.9-5.3-9.4-14.2-9.4c-8.8,0-14.7,4.9-15.6,13.4H656c0.4-15.7,12.6-25.4,31.8-25.4C707.2,658.6,718.1,665.3,718.1,683.2z
			 M689,700.2l-5.8,1.2c-4.2,0.9-7.7,2-9.8,4c-1.9,1.6-2.9,3.9-2.9,7.1c0,2.7,1,4.9,2.7,6.5c2.3,2,5.5,3,9.1,3
			c8.5,0,20.2-4.9,20.2-20.7v-9.5C700.1,696.9,694.6,699.1,689,700.2z"/>
		<path class="st1" d="M745.5,660.4v1.6c0,3.6-0.6,5.3-2,9.1l2.2,0.4c2.7-7.2,11.6-12.9,23.7-12.9c12.3,0,24.8,5.3,24.8,24.6v49.4
			H778v-46.7c0-10.1-6.5-14-15.5-14h-0.3c-9.1,0-17,5.6-17,15.7v44.9h-16.3v-72.2H745.5z"/>
		<path class="st1" d="M837.9,734.3c-21.8,0-36-15-36-38.1c0-23.1,14.4-37.6,36-37.6c17.3,0,31.2,8.5,34.7,27.3h-16.9
			c-1.6-7.9-7.7-14.6-17-14.6h-1.3c-12.7,0-18.5,11.3-18.5,24.8c0,13.6,5.8,25.4,18.5,25.4h1.3c10.5,0,16-7.8,17.2-16.2h16.9
			C870.6,722.3,856.2,734.3,837.9,734.3z"/>
		<path class="st1" d="M948.4,696.5v3.5l-54.3,0.3v0.4c0.4,12.3,8.7,20.9,20.1,20.9h0.7c9.4,0,16.9-6.1,18.5-14H950
			c-2.7,15.6-16.9,26.7-36,26.7c-22.7,0-36.3-15.2-36.3-37.7c0-23.3,14.9-38,35.8-38C934.8,658.6,948.4,673.2,948.4,696.5z
			 M932.1,688.7c-1-9.8-6.9-17.9-18.1-17.9h-1.2c-10.5,0-17.6,8.2-18.6,17.9H932.1z"/>
	</g>
</g>
<g>
	<path class="st2" d="M351.5,461.2c30.1,0,53.5,13.4,53.5,42.4c0,20.6-14.6,35.7-32.2,36.8v3.2c20.8,0.7,28,11.3,28,32.2
		c0,17.6,3.2,29.4,9,38.4v0.9h-28.7c-3.7-8.1-6-18.3-6-33.8c0-20.8-8.1-27.8-26.6-27.8h-38.9v61.6h-25.9v-154H351.5z M377.7,507.3
		c0-17.8-10.4-24.8-27.8-24.8h-40.3V533h40.3C367.2,533,377.7,525.1,377.7,507.3z"/>
	<path class="st1" d="M351.5,443.6H250v171.6h26.6V466.9h78.2c14.7,0,26.6,11.9,26.6,26.6V522c0,14.7-11.9,26.6-26.6,26.6h-35.3
		v-4.3c9,0,12.7-2.5,16.3-6.1l32.3-32.8h-33.3l-53.3,54.9l53.3,54.9h33.3l-32.3-32.8c-3.6-3.6-7.3-6.3-16.3-6.3v-4.2h31.9
		c31.2,0,56.6-25.3,56.6-56.6v-15.3C408,468.9,382.7,443.6,351.5,443.6z"/>
	<g>
		<g>
			<path class="st1" d="M522.7,557.3v5.6l-87.1,0.5v0.7c0.7,19.7,13.9,33.6,32.2,33.6h1.2c15.1,0,27.1-9.7,29.6-22.5h26.6
				c-4.4,25-27.1,42.9-57.7,42.9c-36.4,0-58.1-24.3-58.1-60.5c0-37.3,23.9-60.9,57.4-60.9C500.9,496.6,522.7,520,522.7,557.3z
				 M496.5,544.8c-1.6-15.8-11.1-28.7-29-28.7h-1.9c-16.9,0-28.3,13.2-29.9,28.7H496.5z"/>
			<path class="st1" d="M588.8,618c-35,0-57.7-24.1-57.7-61.1s23.2-60.2,57.7-60.2c27.8,0,50,13.7,55.6,43.8h-27.1
				c-2.5-12.7-12.3-23.4-27.3-23.4h-2.1c-20.4,0-29.6,18.1-29.6,39.8c0,21.8,9.3,40.8,29.6,40.8h2.1c16.9,0,25.7-12.5,27.6-25.9
				h27.1C641.4,598.8,618.3,618,588.8,618z"/>
			<path class="st1" d="M799.8,615.2v-2.5c0-5.8,0.9-9.3,3.2-14.6l-3.5-0.7c-4.4,11.6-17.1,20.6-36.8,20.6s-38.2-10-38.2-39.8v-78.8
				h25.9v74.8c0,15.3,8.8,22.5,23.2,22.5h0.7c14.4,0,25.9-10,25.9-25.2v-72h26.2v115.8H799.8z"/>
			<path class="st1" d="M838.9,471.4c0-8.3,7.2-15.3,16-15.3c8.6,0,15.5,6.9,15.5,15.3c0,8.8-6.9,15.8-15.5,15.8
				C846.1,487.1,838.9,480.2,838.9,471.4z M867.6,499.4v115.8h-25.9V499.4H867.6z"/>
			<path class="st1" d="M950,590.9v22.7c-8.8,1.6-13.9,2.5-23.9,2.5c-22,0-32-11.3-32-34.7V520h-19.7v-20.6h6.7
				c9.3,0,22.9,0.2,30.8,2.3l0.5-3.2c-11.3-3.2-18.3-6.9-18.3-18.5v-13.2h26.4v11.1c0,12.7,0.7,21.5,16,21.5h12.3V520h-28.7v59.3
				c0,8.8,2.1,13.7,11.6,13.7C939.1,593,942.6,592,950,590.9z"/>
			<path class="st1" d="M715.7,499.2c-18.1,0-31,2.3-37.5,21.3l-3.5-0.9c2.1-6.5,2.8-9.3,2.8-15.5v-4.6h-25.7v115.8H678v-61.8
				c0-20.8,8.6-28,24.8-28.3c4.5,0,10.4,0.4,15.7,1.4v-27.4H715.7z"/>
		</g>
	</g>
</g>
<path class="st1" d="M918.2,1114.5h-40.3c-17.6,0-31.8-14.3-31.8-31.8v-40.3c0-17.6,14.3-31.8,31.8-31.8h40.3
	c17.6,0,31.8,14.3,31.8,31.8v40.3C950,1100.2,935.7,1114.5,918.2,1114.5z"/>
<g>
	<g>
		<path class="st1" d="M260.3,1100.9c-6.2,0-10.3-4.3-10.3-10.9c0-6.6,4.1-10.7,10.3-10.7c5,0,8.9,2.4,9.9,7.8h-4.8
			c-0.5-2.3-2.2-4.2-4.9-4.2h-0.4c-3.6,0-5.3,3.2-5.3,7.1s1.7,7.3,5.3,7.3h0.4c3,0,4.6-2.2,4.9-4.6h4.8
			C269.6,1097.5,265.5,1100.9,260.3,1100.9z"/>
		<path class="st1" d="M292.3,1090c0,6.6-4.2,10.9-10.3,10.9c-6.1,0-10.3-4.3-10.3-10.9c0-6.6,4.2-10.7,10.3-10.7
			C288.1,1079.3,292.3,1083.4,292.3,1090z M287.5,1090c0-3.9-1.7-7.1-5.3-7.1h-0.4c-3.7,0-5.3,3.3-5.3,7.1c0,3.8,1.6,7.3,5.3,7.3
			h0.4C285.8,1097.2,287.5,1093.9,287.5,1090z"/>
		<path class="st1" d="M324.5,1086.1v14.2h-4.6v-13.3c0-3.2-1.9-4-3.9-4h-0.3c-2,0-4,1.3-4,4.7l0,12.6h-4.7v-13.2
			c0-3.3-1.9-4.1-3.9-4.1h-0.3c-2,0-3.9,1.3-3.9,4.7v12.6h-4.7v-20.6h4.6v0.4c0,1.1-0.1,1.4-0.5,2.4l0.6,0.2
			c0.9-2.4,3.4-3.5,6.1-3.5c2.8,0,5.2,1.2,5.7,3.9h0.5c0.9-2.5,3.3-3.9,6.5-3.9C320.7,1079.3,324.5,1080.7,324.5,1086.1z"/>
		<path class="st1" d="M348,1090c0,7-4.1,10.9-9,10.9c-3.6,0-5.9-1.9-6.8-4l-0.5,0.1c0.4,1.3,0.5,2.1,0.5,3.2v7h-4.7v-27.4h4.7v0.5
			c0,0.8-0.2,1.8-0.5,2.8l0.5,0.2c0.9-2.1,3.2-3.9,6.8-3.9C343.8,1079.3,348,1083,348,1090z M337.4,1082.9c-3.7,0-5.5,2.9-5.5,7.1
			s1.9,7.2,5.5,7.2h0.2c3.6,0,5.4-2.9,5.4-7.2s-1.8-7.1-5.4-7.1H337.4z"/>
		<path class="st1" d="M355.2,1072.9v27.4h-4.6v-27.4H355.2z"/>
		<path class="st1" d="M358.3,1075.3c0-1.5,1.3-2.7,2.8-2.7c1.5,0,2.8,1.2,2.8,2.7c0,1.6-1.2,2.8-2.8,2.8
			C359.6,1078.1,358.3,1076.8,358.3,1075.3z M363.4,1079.7v20.6h-4.6v-20.6H363.4z"/>
		<path class="st1" d="M383.8,1086.3v14.1h-4.6c0-1.1,0.1-2.1,0.4-3.2l-0.5-0.2c-1.2,2.6-4.3,3.9-6.9,3.9c-1.7,0-3.3-0.5-4.5-1.4
			c-1.4-1-2.3-2.6-2.3-4.7s0.8-3.7,2.4-4.8c1.2-0.8,2.8-1.4,4.9-1.6l1.9-0.2c2.9-0.4,4.6-1,4.6-2.8c0-1.7-1.5-2.7-4-2.7
			c-2.5,0-4.2,1.4-4.5,3.8H366c0.1-4.5,3.6-7.3,9.1-7.3C380.6,1079.3,383.8,1081.1,383.8,1086.3z M375.4,1091.1l-1.7,0.3
			c-1.2,0.2-2.2,0.6-2.8,1.2c-0.5,0.5-0.8,1.1-0.8,2c0,0.8,0.3,1.4,0.8,1.9c0.7,0.6,1.6,0.9,2.6,0.9c2.4,0,5.8-1.4,5.8-5.9v-2.7
			C378.6,1090.2,377,1090.8,375.4,1091.1z"/>
		<path class="st1" d="M391.6,1079.7v0.5c0,1-0.2,1.5-0.6,2.6l0.6,0.1c0.8-2.1,3.3-3.7,6.8-3.7c3.5,0,7.1,1.5,7.1,7v14.1h-4.6v-13.3
			c0-2.9-1.9-4-4.4-4h-0.1c-2.6,0-4.9,1.6-4.9,4.5v12.8h-4.7v-20.6H391.6z"/>
		<path class="st1" d="M418,1100.9c-6.2,0-10.3-4.3-10.3-10.9c0-6.6,4.1-10.7,10.3-10.7c5,0,8.9,2.4,9.9,7.8H423
			c-0.5-2.3-2.2-4.2-4.9-4.2h-0.4c-3.6,0-5.3,3.2-5.3,7.1s1.7,7.3,5.3,7.3h0.4c3,0,4.6-2.2,4.9-4.6h4.8
			C427.3,1097.5,423.2,1100.9,418,1100.9z"/>
		<path class="st1" d="M449.5,1090.1v1l-15.5,0.1v0.1c0.1,3.5,2.5,6,5.7,6h0.2c2.7,0,4.8-1.7,5.3-4h4.7c-0.8,4.5-4.8,7.6-10.3,7.6
			c-6.5,0-10.4-4.3-10.4-10.8c0-6.6,4.3-10.9,10.2-10.9C445.7,1079.3,449.5,1083.4,449.5,1090.1z M444.9,1087.8
			c-0.3-2.8-2-5.1-5.2-5.1h-0.3c-3,0-5,2.4-5.3,5.1H444.9z"/>
	</g>
</g>
<g>
	<path class="st2" d="M279,1022.8c8.6,0,15.3,3.8,15.3,12.1c0,5.9-4.2,10.2-9.2,10.5v0.9c6,0.2,8,3.2,8,9.2c0,5,0.9,8.4,2.6,11v0.3
		h-8.2c-1.1-2.3-1.7-5.2-1.7-9.7c0-6-2.3-7.9-7.6-7.9H267v17.6h-7.4v-44H279z M286.5,1036c0-5.1-3-7.1-7.9-7.1H267v14.4h11.5
		C283.5,1043.3,286.5,1041.1,286.5,1036z"/>
	<path class="st1" d="M279,1017.8h-29v49h7.6v-42.4h22.3c4.2,0,7.6,3.4,7.6,7.6v8.2c0,4.2-3.4,7.6-7.6,7.6h-10.1v-1.2
		c2.6,0,3.6-0.7,4.7-1.8l9.2-9.4h-9.5l-15.2,15.7l15.2,15.7h9.5l-9.2-9.4c-1-1-2.1-1.8-4.7-1.8v-1.2h9.1c8.9,0,16.2-7.2,16.2-16.2
		v-4.4C295.2,1025,287.9,1017.8,279,1017.8z"/>
	<g>
		<g>
			<path class="st1" d="M327.9,1050.3v1.6L303,1052v0.2c0.2,5.6,4,9.6,9.2,9.6h0.3c4.3,0,7.7-2.8,8.5-6.4h7.6
				c-1.3,7.1-7.7,12.2-16.5,12.2c-10.4,0-16.6-6.9-16.6-17.3c0-10.7,6.8-17.4,16.4-17.4C321.7,1033,327.9,1039.6,327.9,1050.3z
				 M320.4,1046.7c-0.5-4.5-3.2-8.2-8.3-8.2h-0.5c-4.8,0-8.1,3.8-8.5,8.2H320.4z"/>
			<path class="st1" d="M346.8,1067.6c-10,0-16.5-6.9-16.5-17.5s6.6-17.2,16.5-17.2c7.9,0,14.3,3.9,15.9,12.5H355
				c-0.7-3.6-3.5-6.7-7.8-6.7h-0.6c-5.8,0-8.5,5.2-8.5,11.4c0,6.2,2.6,11.6,8.5,11.6h0.6c4.8,0,7.3-3.6,7.9-7.4h7.7
				C361.8,1062.1,355.2,1067.6,346.8,1067.6z"/>
			<path class="st1" d="M407.1,1066.8v-0.7c0-1.7,0.3-2.6,0.9-4.2l-1-0.2c-1.3,3.3-4.9,5.9-10.5,5.9s-10.9-2.8-10.9-11.4v-22.5h7.4
				v21.4c0,4.4,2.5,6.4,6.6,6.4h0.2c4.1,0,7.4-2.8,7.4-7.2v-20.6h7.5v33.1H407.1z"/>
			<path class="st1" d="M418.2,1025.7c0-2.4,2.1-4.4,4.6-4.4c2.4,0,4.4,2,4.4,4.4c0,2.5-2,4.5-4.4,4.5
				C420.3,1030.2,418.2,1028.3,418.2,1025.7z M426.5,1033.8v33.1H419v-33.1H426.5z"/>
			<path class="st1" d="M450,1059.9v6.5c-2.5,0.5-4,0.7-6.8,0.7c-6.3,0-9.1-3.2-9.1-9.9v-17.5h-5.6v-5.9h1.9c2.6,0,6.6,0.1,8.8,0.7
				l0.1-0.9c-3.2-0.9-5.2-2-5.2-5.3v-3.8h7.5v3.2c0,3.6,0.2,6.2,4.6,6.2h3.5v5.9h-8.2v16.9c0,2.5,0.6,3.9,3.3,3.9
				C446.9,1060.5,447.9,1060.2,450,1059.9z"/>
			<path class="st1" d="M383.1,1033.7c-5.2,0-8.9,0.7-10.7,6.1l-1-0.3c0.6-1.9,0.8-2.6,0.8-4.4v-1.3h-7.3v33.1h7.5v-17.7
				c0-6,2.4-8,7.1-8.1c1.3,0,3,0.1,4.5,0.4v-7.8H383.1z"/>
		</g>
	</g>
</g>
<path class="st0" d="M910.2,1030.5h-37.9v64.1h9.9v-55.4h29.2c5.5,0,9.9,4.4,9.9,9.9v10.7c0,5.5-4.4,9.9-9.9,9.9h-13.2v-1.6
	c3.4,0,4.8-0.9,6.1-2.3l12.1-12.2H904l-19.9,20.5l19.9,20.5h12.4l-12.1-12.2c-1.3-1.4-2.7-2.3-6.1-2.3v-1.6h11.9
	c11.7,0,21.1-9.5,21.1-21.1v-5.7C931.3,1039.9,921.8,1030.5,910.2,1030.5z"/>
</svg>
