<?xml version="1.0" encoding="utf-8"?>
<!-- Generator: Adobe Illustrator 22.0.0, SVG Export Plug-In . SVG Version: 6.00 Build 0)  -->
<svg version="1.1" id="Layer_1" xmlns="http://www.w3.org/2000/svg" xmlns:xlink="http://www.w3.org/1999/xlink" x="0px" y="0px"
	 viewBox="0 0 1200 1200" style="enable-background:new 0 0 1200 1200;" xml:space="preserve">
<style type="text/css">
	.st0{fill:#EFFFA0;}
	.st1{fill:#222731;}
</style>
<rect class="st0" width="1200" height="1200"/>
<path class="st1" d="M918.2,1114.5h-40.3c-17.6,0-31.8-14.3-31.8-31.8v-40.3c0-17.6,14.3-31.8,31.8-31.8h40.3
	c17.6,0,31.8,14.3,31.8,31.8v40.3C950,1100.2,935.7,1114.5,918.2,1114.5z"/>
<g>
	<path class="st1" d="M476.1,583.3v31.3H465v-72.8h28.6c14.4,0,22.3,8.2,22.3,20.8c0,10.7-5.7,18.2-16.3,20.2l18.7,31.8h-12.5
		l-18.4-31.3H476.1z M493.6,552.9h-17.5v19.8h17.5c6.8,0,11-3.5,11-9.9C504.6,556.4,500.3,552.9,493.6,552.9z"/>
	<path class="st1" d="M552.9,597.6H564c-1.9,14.2-13.4,18.1-22,18.1c-9.4,0-22.4-4.6-22.4-22.2v-11.6c0-17.7,13-22.2,22.4-22.2
		c9.4,0,22.4,4.6,22.4,22.2v9.7h-33.8v1.8c0,8.1,4.7,12,11.4,12C547.4,605.2,551.5,602.7,552.9,597.6z M530.6,581.7v0.1h22.9v-0.1
		c-0.1-7.8-4.8-11.6-11.4-11.6C535.2,570,530.6,573.9,530.6,581.7z"/>
	<path class="st1" d="M592.4,615.7c-9.4,0-22.3-4.6-22.3-22.2v-11.6c0-17.7,13-22.2,22.3-22.2c8.8,0,20.9,4.1,22.2,19.3h-11.1
		c-1-5.9-5.3-8.8-11.1-8.8c-6.8,0-11.4,3.8-11.4,12v11.2c0,8.1,4.7,12,11.4,12c5.8,0,10.2-2.9,11.2-8.8h11
		C613.3,611.6,601.2,615.7,592.4,615.7z"/>
	<path class="st1" d="M643.7,570.7c-6.8,0-11.4,3.7-11.4,11.8v32.1h-10.9V561h10.9v5.2c1.6-3.1,6.9-6.1,12.5-6.1h4.2v10.6H643.7z"/>
	<path class="st1" d="M665.1,593.2c0,8.1,4.7,11.9,11.1,11.9s11.1-3.7,11.1-11.9V561h10.9v53.6h-10.9v-5.1
		c-1.6,3.1-6.9,6.1-12.5,6.1c-9.3,0-20.7-6.4-20.7-22.2V561h10.9V593.2z"/>
	<path class="st1" d="M719.8,553h-10.9v-11.1h10.9V553z M719.8,614.6h-10.9V561h10.9V614.6z"/>
	<path class="st1" d="M743.9,599c0,4,0.7,5.1,5,5.1h8.2v10.5h-11.3c-8.9,0-12.8-4.4-12.8-12.8v-30.6h-7.6V561h7.6v-12.2h10.9V561
		h13.2v10.3h-13.2V599z"/>
	<path class="st1" d="M488.9,697.3c-15.6,0-26.1-10-26.1-25.7v-23.5c0-15.7,10.5-25.7,26.1-25.7c14.9,0,25.2,9,26,23.6h-11.1
		c-0.9-8.7-8.1-12.6-14.9-12.6c-7.3,0-15,4.5-15,14.7v23.5c0,10.2,7.7,14.7,15,14.7c6.8,0,13.9-3.8,14.9-12.6h11.1
		C513.9,688.1,503.7,697.3,488.9,697.3z"/>
	<path class="st1" d="M519.9,663.4c0-17.7,13-22.2,22.3-22.2s22.3,4.6,22.3,22.2V675c0,17.7-13,22.2-22.3,22.2s-22.3-4.6-22.3-22.2
		V663.4z M553.6,663.6c0-8.1-4.7-12-11.4-12c-6.8,0-11.4,3.8-11.4,12v11.2c0,8.1,4.7,12,11.4,12c6.8,0,11.4-3.8,11.4-12V663.6z"/>
	<path class="st1" d="M615.9,696.2H605v-32.6c0-8.1-4.9-11.9-10.9-11.9c-6,0-10.9,3.7-10.9,11.9v32.6h-10.9v-53.6h10.9v4.7
		c1.4-2.9,6.9-6.1,12-6.1c5,0,11.8,2.4,15.4,7.6c3.5-5.2,10.7-7.6,16.3-7.6c9.9,0,21.8,5.7,21.8,22.2v32.8h-10.9v-32.6
		c0-8.1-4.9-11.9-10.9-11.9c-6,0-10.9,3.7-10.9,11.9V696.2z"/>
	<path class="st1" d="M701.8,675c0,16.5-12.1,22.2-21.3,22.2c-5.6,0-10.9-3-12.5-6.1v24.2h-10.9v-72.8H668v4.7
		c1.6-3.1,6.9-6.1,12.5-6.1c9.3,0,21.3,5.7,21.3,22.2V675z M690.9,663.6c0-8.1-4.7-11.9-11.4-11.9c-6.8,0-11.4,3.7-11.4,11.9v11.2
		c0,8.1,4.7,11.9,11.4,11.9c6.8,0,11.4-3.7,11.4-11.9V663.6z"/>
	<path class="st1" d="M720.2,680.6c0,4,0.7,5.1,5,5.1h1.7v10.5H722c-8.9,0-12.8-4.4-12.8-12.8v-60h10.9V680.6z"/>
	<path class="st1" d="M743.5,634.6h-10.9v-11.1h10.9V634.6z M743.5,696.2h-10.9v-53.6h10.9V696.2z"/>
	<path class="st1" d="M762.2,659.2H751c1.9-14.2,13.4-18.1,22-18.1c9.4,0,22.4,4.6,22.4,22.2v32.8h-10.9v-5.1
		c-3.4,4.2-8.9,6.1-16,6.1c-9.8,0-18.3-4.9-18.3-15.9c0-6.1,2.7-13.3,11.6-16.1c6.4-2,13.5-2.5,22.6-3.1V662
		c-0.5-7-5-10.4-11.3-10.4C767.7,651.6,763.6,654.1,762.2,659.2z M784.5,674.8v-3c-9.6,0.6-16.8,1.2-20.8,3.6
		c-1.4,0.8-2.6,2.3-2.6,5c0,4.4,3.3,6.3,9.1,6.3C776.5,686.8,784.5,684.8,784.5,674.8z"/>
	<path class="st1" d="M814.8,696.2h-10.9v-53.6h10.9v4.7c1.6-3.1,6.9-6.1,12.5-6.1c9.3,0,21.3,5.7,21.3,22.2v32.8h-10.9v-32.6
		c0-8.1-4.7-11.9-11.4-11.9c-6.8,0-11.4,3.7-11.4,11.9V696.2z"/>
	<path class="st1" d="M877.9,697.3c-9.4,0-22.3-4.6-22.3-22.2v-11.6c0-17.7,13-22.2,22.3-22.2c8.8,0,20.9,4.1,22.2,19.3H889
		c-1-5.9-5.3-8.8-11.1-8.8c-6.8,0-11.4,3.8-11.4,12v11.2c0,8.1,4.7,12,11.4,12c5.8,0,10.2-2.9,11.2-8.8h11
		C898.8,693.2,886.7,697.3,877.9,697.3z"/>
	<path class="st1" d="M938.6,679.2h11.1c-1.9,14.2-13.4,18.1-22,18.1c-9.4,0-22.4-4.6-22.4-22.2v-11.6c0-17.7,13-22.2,22.4-22.2
		c9.4,0,22.3,4.6,22.3,22.2v9.7h-33.8v1.8c0,8.1,4.7,12,11.4,12C933.1,686.8,937.1,684.3,938.6,679.2z M916.2,663.3v0.1h22.9v-0.1
		c-0.1-7.8-4.8-11.6-11.4-11.6C920.9,651.6,916.2,655.5,916.2,663.3z"/>
</g>
<g>
	<g>
		<path class="st1" d="M354.6,667.2c-4.2,0.6-8.5,0.9-12.8,0.9c-7.7,0-15.1-1-22.2-2.7l-69.6-89v117.4h91.7h12.8h78.9l-35.3-45.2
			C385.8,658.4,370.9,664.9,354.6,667.2z"/>
		<path class="st1" d="M354.6,592.8l43.6,55.8c21.5-16.8,35.3-42.9,35.3-72.3c0-50.7-41.1-91.7-91.7-91.7S250,525.7,250,576.4h91.7
			L354.6,592.8z"/>
	</g>
</g>
<g>
	<g>
		<g>
			<path class="st1" d="M314.6,1057.7v8.9h-3.2v-20.8h8.2c4.1,0,6.4,2.3,6.4,5.9c0,3.1-1.6,5.2-4.7,5.8l5.3,9.1h-3.6l-5.3-8.9H314.6
				z M319.6,1049h-5v5.6h5c1.9,0,3.1-1,3.1-2.8C322.7,1050,321.5,1049,319.6,1049z"/>
			<path class="st1" d="M336.5,1061.8h3.2c-0.5,4.1-3.8,5.2-6.3,5.2c-2.7,0-6.4-1.3-6.4-6.4v-3.3c0-5,3.7-6.4,6.4-6.4
				c2.7,0,6.4,1.3,6.4,6.4v2.8h-9.7v0.5c0,2.3,1.3,3.4,3.3,3.4C335,1064,336.1,1063.3,336.5,1061.8z M330.2,1057.3L330.2,1057.3
				l6.5,0v0c0-2.2-1.4-3.3-3.3-3.3C331.5,1053.9,330.2,1055,330.2,1057.3z"/>
			<path class="st1" d="M347.8,1067c-2.7,0-6.4-1.3-6.4-6.4v-3.3c0-5,3.7-6.4,6.4-6.4c2.5,0,6,1.2,6.4,5.5H351
				c-0.3-1.7-1.5-2.5-3.2-2.5c-1.9,0-3.3,1.1-3.3,3.4v3.2c0,2.3,1.3,3.4,3.3,3.4c1.7,0,2.9-0.8,3.2-2.5h3.1
				C353.8,1065.8,350.4,1067,347.8,1067z"/>
			<path class="st1" d="M362.5,1054.1c-1.9,0-3.3,1.1-3.3,3.4v9.2h-3.1v-15.3h3.1v1.5c0.4-0.9,2-1.8,3.6-1.8h1.2v3H362.5z"/>
			<path class="st1" d="M368.6,1060.6c0,2.3,1.3,3.4,3.2,3.4s3.2-1.1,3.2-3.4v-9.2h3.1v15.3H375v-1.5c-0.4,0.9-2,1.8-3.6,1.8
				c-2.6,0-5.9-1.8-5.9-6.4v-9.3h3.1V1060.6z"/>
			<path class="st1" d="M384.2,1049.1h-3.1v-3.2h3.1V1049.1z M384.2,1066.7h-3.1v-15.3h3.1V1066.7z"/>
			<path class="st1" d="M391.1,1062.2c0,1.1,0.2,1.5,1.4,1.5h2.3v3h-3.2c-2.6,0-3.7-1.2-3.7-3.7v-8.7h-2.2v-2.9h2.2v-3.5h3.1v3.5
				h3.8v2.9h-3.8V1062.2z"/>
			<path class="st1" d="M318.3,1090.3c-4.5,0-7.5-2.9-7.5-7.3v-6.7c0-4.5,3-7.3,7.5-7.3c4.2,0,7.2,2.6,7.4,6.7h-3.2
				c-0.3-2.5-2.3-3.6-4.2-3.6c-2.1,0-4.3,1.3-4.3,4.2v6.7c0,2.9,2.2,4.2,4.3,4.2c1.9,0,4-1.1,4.2-3.6h3.2
				C325.4,1087.7,322.5,1090.3,318.3,1090.3z"/>
			<path class="st1" d="M327.1,1080.6c0-5,3.7-6.4,6.4-6.4s6.4,1.3,6.4,6.4v3.3c0,5-3.7,6.4-6.4,6.4s-6.4-1.3-6.4-6.4V1080.6z
				 M336.8,1080.7c0-2.3-1.3-3.4-3.3-3.4s-3.3,1.1-3.3,3.4v3.2c0,2.3,1.3,3.4,3.3,3.4s3.3-1.1,3.3-3.4V1080.7z"/>
			<path class="st1" d="M354.5,1090h-3.1v-9.3c0-2.3-1.4-3.4-3.1-3.4c-1.7,0-3.1,1.1-3.1,3.4v9.3h-3.1v-15.3h3.1v1.3
				c0.4-0.8,2-1.8,3.4-1.8c1.4,0,3.4,0.7,4.4,2.2c1-1.5,3.1-2.2,4.7-2.2c2.8,0,6.2,1.6,6.2,6.4v9.4h-3.1v-9.3c0-2.3-1.4-3.4-3.1-3.4
				c-1.7,0-3.1,1.1-3.1,3.4V1090z"/>
			<path class="st1" d="M379.1,1083.9c0,4.7-3.4,6.4-6.1,6.4c-1.6,0-3.1-0.9-3.6-1.8v6.9h-3.1v-20.8h3.1v1.3c0.4-0.9,2-1.8,3.6-1.8
				c2.6,0,6.1,1.6,6.1,6.4V1083.9z M376,1080.7c0-2.3-1.3-3.4-3.3-3.4s-3.3,1.1-3.3,3.4v3.2c0,2.3,1.3,3.4,3.3,3.4s3.3-1.1,3.3-3.4
				V1080.7z"/>
			<path class="st1" d="M384.3,1085.5c0,1.1,0.2,1.5,1.4,1.5h0.5v3h-1.4c-2.6,0-3.7-1.2-3.7-3.7v-17.1h3.1V1085.5z"/>
			<path class="st1" d="M391,1072.4h-3.1v-3.2h3.1V1072.4z M391,1090h-3.1v-15.3h3.1V1090z"/>
			<path class="st1" d="M396.3,1079.4h-3.2c0.5-4.1,3.8-5.2,6.3-5.2c2.7,0,6.4,1.3,6.4,6.4v9.4h-3.1v-1.5c-1,1.2-2.6,1.8-4.6,1.8
				c-2.8,0-5.2-1.4-5.2-4.5c0-1.8,0.8-3.8,3.3-4.6c1.8-0.6,3.9-0.7,6.4-0.9v0c-0.1-2-1.4-3-3.2-3
				C397.9,1077.3,396.7,1078,396.3,1079.4z M402.7,1083.9v-0.9c-2.7,0.2-4.8,0.4-5.9,1c-0.4,0.2-0.7,0.7-0.7,1.4
				c0,1.2,1,1.8,2.6,1.8C400.4,1087.3,402.7,1086.7,402.7,1083.9z"/>
			<path class="st1" d="M411.4,1090h-3.1v-15.3h3.1v1.3c0.4-0.9,2-1.8,3.6-1.8c2.6,0,6.1,1.6,6.1,6.4v9.4h-3.1v-9.3
				c0-2.3-1.3-3.4-3.3-3.4c-1.9,0-3.3,1.1-3.3,3.4V1090z"/>
			<path class="st1" d="M429.4,1090.3c-2.7,0-6.4-1.3-6.4-6.4v-3.3c0-5,3.7-6.4,6.4-6.4c2.5,0,6,1.2,6.4,5.5h-3.2
				c-0.3-1.7-1.5-2.5-3.2-2.5c-1.9,0-3.3,1.1-3.3,3.4v3.2c0,2.3,1.3,3.4,3.3,3.4c1.7,0,2.9-0.8,3.2-2.5h3.1
				C435.4,1089.1,431.9,1090.3,429.4,1090.3z"/>
			<path class="st1" d="M446.7,1085.1h3.2c-0.5,4.1-3.8,5.2-6.3,5.2c-2.7,0-6.4-1.3-6.4-6.4v-3.3c0-5,3.7-6.4,6.4-6.4
				c2.7,0,6.4,1.3,6.4,6.4v2.8h-9.7v0.5c0,2.3,1.3,3.4,3.3,3.4C445.2,1087.3,446.3,1086.6,446.7,1085.1z M440.3,1080.6L440.3,1080.6
				l6.5,0v0c0-2.2-1.4-3.3-3.3-3.3C441.7,1077.3,440.3,1078.3,440.3,1080.6z"/>
		</g>
	</g>
	<g>
		<g>
			<path class="st1" d="M279.9,1081.7c-1.2,0.2-2.4,0.3-3.7,0.3c-2.2,0-4.3-0.3-6.3-0.8l-19.9-25.4v33.6h26.2h3.7h22.5l-10.1-12.9
				C288.8,1079.2,284.5,1081.1,279.9,1081.7z"/>
			<path class="st1" d="M279.9,1060.5l12.5,16c6.1-4.8,10.1-12.3,10.1-20.7c0-14.5-11.7-26.2-26.2-26.2s-26.2,11.7-26.2,26.2h26.2
				L279.9,1060.5z"/>
		</g>
	</g>
</g>
<g>
	<path class="st0" d="M901.9,1084.3c-1.3,0.2-2.6,0.3-3.9,0.3c-2.3,0-4.6-0.3-6.8-0.8l-21.2-27.2v35.8h28h3.9H926l-10.8-13.8
		C911.5,1081.6,906.9,1083.6,901.9,1084.3z"/>
	<path class="st0" d="M901.9,1061.6l13.3,17c6.6-5.1,10.8-13.1,10.8-22.1c0-15.5-12.5-28-28-28s-28,12.5-28,28h28L901.9,1061.6z"/>
</g>
</svg>
