<?xml version="1.0" encoding="utf-8"?>
<!-- Generator: Adobe Illustrator 22.0.0, SVG Export Plug-In . SVG Version: 6.00 Build 0)  -->
<svg version="1.1" id="Layer_1" xmlns="http://www.w3.org/2000/svg" xmlns:xlink="http://www.w3.org/1999/xlink" x="0px" y="0px"
	 viewBox="0 0 1200 1200" style="enable-background:new 0 0 1200 1200;" xml:space="preserve">
<style type="text/css">
	.st0{fill:#FFFFFF;}
	.st1{fill:#1A1A1A;}
</style>
<rect class="st0" width="1200" height="1200"/>
<path class="st1" d="M918.2,1114.5h-40.3c-17.6,0-31.8-14.3-31.8-31.8v-40.3c0-17.6,14.3-31.8,31.8-31.8h40.3
	c17.6,0,31.8,14.3,31.8,31.8v40.3C950,1100.2,935.7,1114.5,918.2,1114.5z"/>
<g>
	<rect x="250" y="577.6" class="st1" width="33.4" height="100.8"/>
	
		<rect x="341.7" y="485.8" transform="matrix(6.123234e-17 -1 1 6.123234e-17 -235.8127 952.6664)" class="st1" width="33.4" height="216.9"/>
	<path class="st1" d="M318.2,613.2v-12.1h-33.4v12.6c0,35.7,29,64.7,64.7,64.7h150.6V645H350.1C332.5,645,318.2,630.8,318.2,613.2z"
		/>
	<path class="st1" d="M466.9,575.3v2.3h33.4v-2.8c0-35.7-29-64.7-64.7-64.7H250v33.4h185C452.6,543.4,466.9,557.7,466.9,575.3z"/>
	<g>
		<path class="st1" d="M561.3,605.2l13.5,15.2v1.3h-9.8l-14.6-16.4h-11.4v16.4h-8.5V577h27.9c10.4,0,16.6,5.4,16.6,14.1v0.8
			C575,599.2,569.9,604.3,561.3,605.2z M566.3,590.8c0-4-2.9-6.1-8.2-6.1h-19.2v13.2h19.2c5.2,0,8.2-2.2,8.2-6.2V590.8z"/>
		<path class="st1" d="M618.3,607.5H587c0.6,4.8,4.8,7.6,11.6,7.6c6.3,0,10.5-2,10.9-5h8.8c-0.9,8-8.1,12.5-19.7,12.5
			c-12.5,0-20.2-6.5-20.2-17v-1.4c0-10.6,7.8-17.2,20.2-17.2c12.3,0,19.7,6.3,19.7,16.9V607.5z M587.3,600.7h22.1
			c-1.1-3.9-5-6.2-10.9-6.2C592.5,594.5,588.5,596.7,587.3,600.7z"/>
		<path class="st1" d="M620.8,605.4v-1.1c0-10.7,7.8-17.4,20.3-17.4c11.4,0,19.7,6.2,19.7,14.9v0.2h-8.5v-0.2
			c0-4.4-4.6-7.4-11.2-7.4c-7.6,0-11.9,3.6-11.9,9.9v1c0,6.1,4.3,9.7,11.9,9.7c6.7,0,11.2-3,11.2-7.4v-0.2h8.5v0.2
			c0,8.9-7.9,14.9-19.7,14.9C628.6,622.5,620.8,615.9,620.8,605.4z"/>
		<path class="st1" d="M691.4,587.8v7.2h-7.6c-4.6,0-8,1.4-9.9,4v22.8h-8.2v-33.9h7.6l0.2,3.3c2.9-2.2,6.9-3.3,11.4-3.3H691.4z"/>
		<path class="st1" d="M732,587.8v33.9h-7.6l-0.3-3.7c-3.1,2.9-7.3,4.4-12.1,4.5c-11.9,0-18.1-6.1-18.1-17.7v-17h8.2v17
			c0,6.6,3.7,10.2,10.8,10.2c4.9,0,9.1-2.5,11-6.2v-21.1H732z"/>
		<path class="st1" d="M738.3,578.1c0-2.9,2.2-5,5.4-5c3.2,0,5.4,2,5.4,5c0,3-2.2,5.1-5.4,5.1C740.5,583.2,738.3,581.1,738.3,578.1z
			 M739.6,587.8h8.2v33.9h-8.2V587.8z"/>
		<path class="st1" d="M769.9,595v15c0,2.9,1.7,4.5,4.8,4.5h8v7.2h-8.8c-7.6,0-12.2-4.4-12.2-11.4V595h-12v-7.2h9.9
			c1.7,0,2.2-0.5,2.2-2.2v-6.8h8v9.1h14.9v7.2H769.9z"/>
		<path class="st1" d="M528.4,656.5v-0.9c0-13.8,10.3-22.8,26.4-22.8c14.7,0,25.6,8,25.6,18.7v0.5h-8.7v-0.5c0-6.3-7-10.8-16.9-10.8
			c-11.5,0-17.8,5.3-17.8,14.7v1.2c0,9.5,6.2,14.7,17.8,14.7c10.1,0,16.9-4.4,16.9-10.8v-0.5h8.7v0.5c0,10.8-10.8,18.7-25.6,18.7
			C538.7,679.2,528.4,670.3,528.4,656.5z"/>
		<path class="st1" d="M583.7,662v-1c0-10.8,7.8-17.4,20.5-17.4c12.6,0,20.3,6.6,20.3,17.4v1c0,10.6-7.7,17.2-20.3,17.2
			C591.5,679.2,583.7,672.6,583.7,662z M616.1,662v-1c0-6.3-4.4-9.9-11.9-9.9c-7.7,0-12,3.5-12,9.9v1c0,6.1,4.4,9.7,12,9.7
			C611.6,671.7,616.1,668,616.1,662z"/>
		<path class="st1" d="M695,661.2v17.2h-8.2v-17.2c0-6.5-3.5-10.1-9.7-10.1c-4.9,0-9.1,2.5-11.2,6.4c0.1,1.2,0.2,2.4,0.2,3.7v17.2
			H658v-17.2c0-6.5-3.5-10.1-9.7-10.1c-4.8,0-9,2.5-11,6.3v21h-8.2v-33.9h7.6l0.3,3.6c3.1-2.9,7.2-4.4,12.1-4.4
			c6.6,0,11.4,2.2,14.2,6.3c3.4-4.2,8.3-6.3,14.2-6.3C688.9,643.6,695,649.8,695,661.2z"/>
		<path class="st1" d="M741.6,660.9v0.9c0,10.6-8,17.4-20.3,17.4c-4.6,0-8.5-1.3-11.6-3.6v14.4h-8.2v-45.5h7.6l0.2,3.1
			c3.2-2.5,7.3-4,11.9-4C733.7,643.6,741.6,650.3,741.6,660.9z M733.1,660.9c0-6.1-4.5-9.8-12-9.8c-4.9,0-9.2,1.8-11.4,4.6V667
			c2.2,2.9,6.6,4.7,11.4,4.7c7.5,0,12-3.7,12-9.9V660.9z"/>
		<path class="st1" d="M746.7,668.9v-38h8.2v36.5c0,2.6,1.2,3.7,4.1,3.7h2.9v7.2h-4.4C750.6,678.3,746.7,674.9,746.7,668.9z"/>
		<path class="st1" d="M763.8,634.7c0-2.9,2.2-5,5.4-5c3.2,0,5.4,2,5.4,5c0,3-2.2,5.1-5.4,5.1C766,639.8,763.8,637.7,763.8,634.7z
			 M765.1,644.4h8.2v33.9h-8.2V644.4z"/>
		<path class="st1" d="M822.9,671.1v7.2h-5c-4.4,0-7.5-1.6-8.9-4.4c-3.5,3.6-8.2,5.2-14.8,5.2c-9.9,0-15.6-3.7-15.6-10.3
			c0-5.5,4.2-9,11.9-9.8l17.4-1.9c-0.5-3.9-4-5.8-10.4-5.8c-6.6,0-10.6,2-10.6,5.4v0.2h-8.2v-0.2c0-7.9,7.4-13.2,18.8-13.2
			c11.7,0,18.6,5.5,18.6,14.9v9.4c0,2.1,1.3,3.3,3.7,3.3H822.9z M808.1,665.9v-2.1l-15.7,1.7c-3.7,0.4-5.5,1.5-5.5,3.3
			c0,2,2.5,3.1,7.2,3.1C801,671.9,806,669.8,808.1,665.9z"/>
		<path class="st1" d="M863.5,661.3v17h-8.2v-17c0-6.6-3.7-10.2-10.8-10.2c-4.9,0-9.1,2.5-11,6.2v21.1h-8.2v-33.9h7.6l0.3,3.7
			c3.1-2.9,7.3-4.4,12.1-4.5C857.3,643.6,863.5,649.7,863.5,661.3z"/>
		<path class="st1" d="M867.9,662.1V661c0-10.7,7.8-17.4,20.3-17.4c11.4,0,19.7,6.2,19.7,14.9v0.2h-8.4v-0.2c0-4.4-4.6-7.4-11.2-7.4
			c-7.6,0-11.9,3.6-11.9,9.9v1c0,6.1,4.3,9.7,11.9,9.7c6.7,0,11.2-3,11.2-7.4v-0.2h8.4v0.2c0,8.9-7.9,14.9-19.7,14.9
			C875.7,679.2,867.9,672.5,867.9,662.1z"/>
		<path class="st1" d="M950,664.1h-31.3c0.6,4.8,4.8,7.6,11.6,7.6c6.3,0,10.5-2,10.9-5h8.8c-0.9,8-8.1,12.5-19.7,12.5
			c-12.5,0-20.2-6.5-20.2-17v-1.4c0-10.6,7.8-17.2,20.2-17.2c12.3,0,19.7,6.3,19.7,16.9V664.1z M919,657.3h22.1
			c-1.1-3.9-5-6.2-10.9-6.2C924.2,651.1,920.2,653.3,919,657.3z"/>
	</g>
</g>
<g>
	<g>
		<rect x="250.5" y="1038.6" class="st1" width="9.5" height="28.8"/>
		
			<rect x="276.7" y="1012.4" transform="matrix(6.123234e-17 -1 1 6.123234e-17 -761.9249 1324.7834)" class="st1" width="9.5" height="62"/>
		<path class="st1" d="M269.9,1048.8v-3.5h-9.5v3.6c0,10.2,8.3,18.5,18.5,18.5h43v-9.5H279C274,1057.9,269.9,1053.8,269.9,1048.8z"
			/>
		<path class="st1" d="M312.4,1037.9v0.6h9.5v-0.8c0-10.2-8.3-18.5-18.5-18.5h-53v9.5h52.9C308.3,1028.8,312.4,1032.9,312.4,1037.9z
			"/>
	</g>
	<g>
		<path class="st1" d="M259.4,1081.5l3.9,4.3v0.4h-2.8l-4.2-4.7H253v4.7h-2.4v-12.8h8c3,0,4.8,1.5,4.8,4v0.2
			C263.3,1079.8,261.9,1081.2,259.4,1081.5z M260.8,1077.4c0-1.1-0.8-1.8-2.3-1.8H253v3.8h5.5c1.5,0,2.3-0.6,2.3-1.8V1077.4z"/>
		<path class="st1" d="M275.7,1082.1h-8.9c0.2,1.4,1.4,2.2,3.3,2.2c1.8,0,3-0.6,3.1-1.4h2.5c-0.3,2.3-2.3,3.6-5.6,3.6
			c-3.6,0-5.8-1.9-5.8-4.9v-0.4c0-3,2.2-4.9,5.8-4.9c3.5,0,5.6,1.8,5.6,4.8V1082.1z M266.8,1080.2h6.3c-0.3-1.1-1.4-1.8-3.1-1.8
			C268.3,1078.4,267.2,1079.1,266.8,1080.2z"/>
		<path class="st1" d="M276.4,1081.6v-0.3c0-3.1,2.2-5,5.8-5c3.3,0,5.6,1.8,5.6,4.3v0.1h-2.4v-0.1c0-1.2-1.3-2.1-3.2-2.1
			c-2.2,0-3.4,1-3.4,2.8v0.3c0,1.8,1.2,2.8,3.4,2.8c1.9,0,3.2-0.9,3.2-2.1v-0.1h2.4v0.1c0,2.5-2.3,4.2-5.6,4.2
			C278.6,1086.4,276.4,1084.6,276.4,1081.6z"/>
		<path class="st1" d="M296.6,1076.5v2.1h-2.2c-1.3,0-2.3,0.4-2.8,1.1v6.5h-2.3v-9.7h2.2l0.1,1c0.8-0.6,2-1,3.3-1H296.6z"/>
		<path class="st1" d="M308.2,1076.5v9.7H306l-0.1-1.1c-0.9,0.8-2.1,1.3-3.5,1.3c-3.4,0-5.2-1.7-5.2-5.1v-4.9h2.3v4.9
			c0,1.9,1.1,2.9,3.1,2.9c1.4,0,2.6-0.7,3.2-1.8v-6H308.2z"/>
		<path class="st1" d="M310,1073.7c0-0.8,0.6-1.4,1.5-1.4c0.9,0,1.5,0.6,1.5,1.4s-0.6,1.5-1.5,1.5
			C310.6,1075.2,310,1074.6,310,1073.7z M310.3,1076.5h2.3v9.7h-2.3V1076.5z"/>
		<path class="st1" d="M319,1078.6v4.3c0,0.8,0.5,1.3,1.4,1.3h2.3v2.1h-2.5c-2.2,0-3.5-1.2-3.5-3.3v-4.4h-3.4v-2.1h2.8
			c0.5,0,0.6-0.2,0.6-0.6v-1.9h2.3v2.6h4.2v2.1H319z"/>
		<path class="st1" d="M250,1096.1v-0.3c0-4,2.9-6.5,7.6-6.5c4.2,0,7.3,2.3,7.3,5.4v0.2h-2.5v-0.2c0-1.8-2-3.1-4.8-3.1
			c-3.3,0-5.1,1.5-5.1,4.2v0.3c0,2.7,1.8,4.2,5.1,4.2c2.9,0,4.8-1.3,4.8-3.1v-0.2h2.5v0.2c0,3.1-3.1,5.3-7.3,5.3
			C252.9,1102.6,250,1100.1,250,1096.1z"/>
		<path class="st1" d="M265.8,1097.7v-0.3c0-3.1,2.2-5,5.9-5c3.6,0,5.8,1.9,5.8,5v0.3c0,3-2.2,4.9-5.8,4.9
			C268,1102.6,265.8,1100.7,265.8,1097.7z M275,1097.7v-0.3c0-1.8-1.2-2.8-3.4-2.8c-2.2,0-3.4,1-3.4,2.8v0.3c0,1.7,1.3,2.8,3.4,2.8
			C273.8,1100.5,275,1099.4,275,1097.7z"/>
		<path class="st1" d="M297.6,1097.5v4.9h-2.3v-4.9c0-1.8-1-2.9-2.8-2.9c-1.4,0-2.6,0.7-3.2,1.8c0,0.3,0.1,0.7,0.1,1.1v4.9H287v-4.9
			c0-1.8-1-2.9-2.8-2.9c-1.4,0-2.6,0.7-3.1,1.8v6h-2.3v-9.7h2.2l0.1,1c0.9-0.8,2.1-1.3,3.4-1.3c1.9,0,3.3,0.6,4,1.8
			c1-1.2,2.4-1.8,4.1-1.8C295.8,1092.5,297.6,1094.2,297.6,1097.5z"/>
		<path class="st1" d="M310.9,1097.4v0.3c0,3-2.3,5-5.8,5c-1.3,0-2.4-0.4-3.3-1v4.1h-2.3v-13h2.2l0.1,0.9c0.9-0.7,2.1-1.1,3.4-1.1
			C308.6,1092.5,310.9,1094.4,310.9,1097.4z M308.5,1097.4c0-1.8-1.3-2.8-3.4-2.8c-1.4,0-2.6,0.5-3.3,1.3v3.2
			c0.6,0.8,1.9,1.3,3.3,1.3c2.1,0,3.4-1.1,3.4-2.8V1097.4z"/>
		<path class="st1" d="M312.4,1099.7v-10.8h2.3v10.4c0,0.7,0.3,1.1,1.2,1.1h0.8v2.1h-1.3C313.5,1102.4,312.4,1101.4,312.4,1099.7z"
			/>
		<path class="st1" d="M317.2,1089.9c0-0.8,0.6-1.4,1.5-1.4c0.9,0,1.5,0.6,1.5,1.4s-0.6,1.5-1.5,1.5
			C317.9,1091.4,317.2,1090.8,317.2,1089.9z M317.6,1092.7h2.3v9.7h-2.3V1092.7z"/>
		<path class="st1" d="M334.1,1100.3v2.1h-1.4c-1.2,0-2.1-0.4-2.6-1.3c-1,1-2.4,1.5-4.2,1.5c-2.8,0-4.5-1.1-4.5-2.9
			c0-1.6,1.2-2.6,3.4-2.8l5-0.5c-0.2-1.1-1.1-1.7-3-1.7c-1.9,0-3,0.6-3,1.5v0.1h-2.3v-0.1c0-2.3,2.1-3.8,5.4-3.8
			c3.3,0,5.3,1.6,5.3,4.2v2.7c0,0.6,0.4,0.9,1.1,0.9H334.1z M329.9,1098.8v-0.6l-4.5,0.5c-1.1,0.1-1.6,0.4-1.6,1
			c0,0.6,0.7,0.9,2.1,0.9C327.9,1100.6,329.3,1099.9,329.9,1098.8z"/>
		<path class="st1" d="M345.7,1097.5v4.9h-2.3v-4.9c0-1.9-1.1-2.9-3.1-2.9c-1.4,0-2.6,0.7-3.2,1.8v6h-2.3v-9.7h2.2l0.1,1.1
			c0.9-0.8,2.1-1.3,3.5-1.3C344,1092.5,345.7,1094.2,345.7,1097.5z"/>
		<path class="st1" d="M347,1097.7v-0.3c0-3.1,2.2-5,5.8-5c3.3,0,5.6,1.8,5.6,4.3v0.1H356v-0.1c0-1.2-1.3-2.1-3.2-2.1
			c-2.2,0-3.4,1-3.4,2.8v0.3c0,1.8,1.2,2.8,3.4,2.8c1.9,0,3.2-0.9,3.2-2.1v-0.1h2.4v0.1c0,2.5-2.3,4.2-5.6,4.2
			C349.2,1102.6,347,1100.7,347,1097.7z"/>
		<path class="st1" d="M370.5,1098.3h-8.9c0.2,1.4,1.4,2.2,3.3,2.2c1.8,0,3-0.6,3.1-1.4h2.5c-0.3,2.3-2.3,3.6-5.6,3.6
			c-3.6,0-5.8-1.9-5.8-4.9v-0.4c0-3,2.2-4.9,5.8-4.9c3.5,0,5.6,1.8,5.6,4.8V1098.3z M361.6,1096.4h6.3c-0.3-1.1-1.4-1.8-3.1-1.8
			C363.1,1094.6,361.9,1095.2,361.6,1096.4z"/>
	</g>
</g>
<g>
	<g>
		<rect x="862.3" y="1057.7" class="st0" width="9.5" height="28.8"/>
		<rect x="862.3" y="1057.7" class="st0" width="62" height="9.5"/>
		<path class="st0" d="M881.8,1067.9v-3.5h-9.5v3.6c0,10.2,8.3,18.5,18.5,18.5h43v-9.5h-42.9C885.8,1077,881.8,1072.9,881.8,1067.9z
			"/>
		<path class="st0" d="M924.2,1057.1v0.6h9.5v-0.8c0-10.2-8.3-18.5-18.5-18.5h-53v9.5h52.9C920.1,1048,924.2,1052.1,924.2,1057.1z"
			/>
	</g>
</g>
</svg>
