<?xml version="1.0" encoding="utf-8"?>
<!-- Generator: Adobe Illustrator 22.0.0, SVG Export Plug-In . SVG Version: 6.00 Build 0)  -->
<svg version="1.1" id="Layer_1" xmlns="http://www.w3.org/2000/svg" xmlns:xlink="http://www.w3.org/1999/xlink" x="0px" y="0px"
	 viewBox="0 0 1200 1200" style="enable-background:new 0 0 1200 1200;" xml:space="preserve">
<style type="text/css">
	.st0{fill:#3F00C9;}
	.st1{fill:#F2F272;}
</style>
<rect class="st0" width="1200" height="1200"/>
<path class="st1" d="M918.2,1114.5h-40.3c-17.6,0-31.8-14.3-31.8-31.8v-40.3c0-17.6,14.3-31.8,31.8-31.8h40.3
	c17.6,0,31.8,14.3,31.8,31.8v40.3C950,1100.2,935.7,1114.5,918.2,1114.5z"/>
<g>
	<path class="st1" d="M465,669.5H335.6c-23.1,0-41.9-18.8-41.9-41.9s18.8-41.9,41.9-41.9h79.2c9.5,0,17.3-7.8,17.3-17.3
		c0-9.5-7.8-17.3-17.3-17.3H303.7c-9.5,0-17.3,7.8-17.3,17.3v101.1H250V568.4c0-29.6,24.1-53.7,53.7-53.7h111.1
		c29.6,0,53.7,24.1,53.7,53.7c0,29.6-24.1,53.7-53.7,53.7h-79.2c-3,0-5.5,2.5-5.5,5.5s2.5,5.5,5.5,5.5H465V669.5z"/>
	<g>
		<path class="st1" d="M509.5,561.2h20.2c11.5,0,22.7,2.4,22.3,13.1c-0.3,7.9-6.7,12.6-17.7,12.1l-0.6,3c3.5,0.7,6.2,1.7,8.5,7.9
			l5.7,14.5h-15l-4.7-13.8c-1.1-3.2-2.9-4.2-6.2-4.2h-5.8l-3.5,17.9h-13.1L509.5,561.2z M527.8,583.2c5.8,0,9.7-0.2,10.3-5.2
			c0.7-5.1-3.4-5.4-8.9-5.4h-8.9l-2,10.6H527.8z"/>
		<path class="st1" d="M570.7,574.8c12.5,0,19.7,6.8,17.8,18.2l-0.5,3.2h-26.8c-0.4,4.4,2.2,7,6.6,7c3.4,0,6.5-1.3,7.6-4.3h12.2
			c-1.8,8-9.3,13.6-20.4,13.6c-12.2,0-19.1-7.6-17.9-18.9C550.6,581.8,559.3,574.8,570.7,574.8z M577.2,589.9
			c0.2-3.9-2.4-6.2-6.7-6.2c-4.1,0-7.1,2.2-8.2,6.2H577.2z"/>
		<path class="st1" d="M612.3,574.8c10.8,0,19.1,5.9,18.5,15.9h-12.3c0-2.7-2.5-5.1-6.8-5.1c-4.4,0-8.1,2.6-8.8,7.8
			c-0.7,5.5,2.3,8.4,7,8.4c4.4,0,7.2-2.6,7.9-5.2h12.4c-1.6,10.3-10.8,15.9-21.3,15.9c-11.1,0-19.7-6.3-18.2-19.2
			C591.9,581.1,601.2,574.8,612.3,574.8z"/>
		<path class="st1" d="M637.7,575.5H650l-0.9,4.1l-3.7,6.8h3.1c2.6-6.3,7.7-11,14.9-11h4.2l-2.1,10.9h-8c-5.9,0-10.3,2.7-12.1,12.3
			l-2.5,13.1h-12.3L637.7,575.5z"/>
		<path class="st1" d="M666.5,593.1l3.4-17.6h12.3l-3.2,16.3c-1.4,6.8,0.2,9.8,6.5,9.8c5.6,0,9.3-2.8,11.1-12.3l2.7-13.8h12.3
			l-7,36.3h-12.3l0.5-2.7l3.8-6.9h-3.2c-2.7,6.1-7.2,10.3-14.4,10.3C669.7,612.5,664.2,605.1,666.5,593.1z"/>
		<path class="st1" d="M710.5,600.9h10.2l2.9-14.6h-8.9l2-10.8h14.1c3.9,0,6,2,5.1,6l-3.8,19.4h10.3l-2,10.8h-31.9L710.5,600.9z
			 M733.1,560c4.4,0,7.2,2,6.6,6.2c-0.6,4.2-3.9,6.2-8.3,6.2c-4.4,0-6.9-1.9-6.3-6.2C725.7,562,728.7,560,733.1,560z"/>
		<path class="st1" d="M770.5,611.8H751c-4.1,0-6-2.2-5.1-6.3l3.7-19.2h-8.8l2.2-10.8h8.7l1.3-6.5l13-3.9l-2,10.3h12.1l-2.2,10.8
			h-12.1L759,601l13.5-0.1L770.5,611.8z"/>
		<path class="st1" d="M502.2,644.8c1.3-14.9,12.6-26.3,29.4-26.3c14.1,0,23.4,8,23.8,20.5h-13.4c-0.5-5.8-5.2-8.7-11.2-8.7
			c-7.7,0-13.8,4.4-15,14.2c-1.1,10.3,4,14.7,11.8,14.7c6.5,0,11.5-3.2,13.2-8.8h13.5c-2.6,12.9-13.3,20.6-27.2,20.6
			C510,671.2,500.9,659.8,502.2,644.8z"/>
		<path class="st1" d="M578.2,633.1c11.3,0,20.1,6,19,18.8c-1.1,13-11,18.9-22.2,18.9c-11.4,0-20.2-6-19.1-18.9
			C557,639.1,566.8,633.1,578.2,633.1z M575.8,660c4.9,0,8.5-2.7,9-8.1c0.5-5.4-2.6-8-7.5-8c-5,0-8.6,2.6-9.1,8
			C567.7,657.4,570.8,660,575.8,660z"/>
		<path class="st1" d="M604.5,633.8h12.3l-0.4,2.2l-3.8,7h3.2c2.6-6,5.9-9.6,12.3-9.6c6.8,0,9.3,4,9.6,9.5h2.7
			c2.6-6.1,5.9-9.6,12.1-9.6c12.8,0,10.5,15.2,9.7,19.8l-3.4,17.2h-12.3l3.4-17.2c0.9-5.1,1.4-9-3.9-9c-5.6,0-7.5,4.5-9.1,13.1
			l-2.6,13.1H622l3.3-17.2c1-5.1,1.4-9-3.9-9c-5.6,0-7.5,4.5-9.1,13.1l-2.6,13.1h-12.3L604.5,633.8z"/>
		<path class="st1" d="M669.8,633.8H682l-0.2,1.3l-3.9,6.5h3.1c2.6-4.2,5.9-8.5,13.9-8.5c11.7,0,16,9.1,13.9,20.5
			c-1.9,9.5-7.5,17.2-17.7,17.2c-6.6,0-11.7-3.2-13.2-10.1h-2.9l0.8,6.2l-3.3,18.4H660L669.8,633.8z M686.9,660
			c6.2,0,8.8-2.6,9.7-7.2c1.1-5.7-1.2-9-8.4-9c-6.3,0-8.5,2.6-9.5,7C677.5,656.8,680,660,686.9,660z"/>
		<path class="st1" d="M708.4,659.3h10l6.1-31.1h-8.8l2.1-10.8h14.9c3.9,0,5.8,2.1,5,6l-7,35.9h10.1l-2,10.8h-32.4L708.4,659.3z"/>
		<path class="st1" d="M743.1,659.3h10.2l2.9-14.6h-8.9l2-10.8h14.1c3.9,0,6,2,5.1,6l-3.8,19.4h10.3l-2,10.8H741L743.1,659.3z
			 M765.6,618.3c4.4,0,7.2,2,6.6,6.2c-0.6,4.2-3.9,6.2-8.3,6.2c-4.4,0-6.9-1.9-6.3-6.2C758.2,620.4,761.3,618.3,765.6,618.3z"/>
		<path class="st1" d="M776.9,650.4c1.8-9.5,7.5-17.2,17.7-17.2c6.7,0,11.8,3.2,13.3,10.1h2.9l-0.8-6.2l0.6-3.2h12.2l-6.9,36.3
			h-12.3l0.3-1.3l3.9-6.5h-3.1c-2.6,4.2-5.8,8.5-13.9,8.5C779.1,670.9,774.8,661.8,776.9,650.4z M797.4,660.1c6.3,0,8.6-2.6,9.5-7
			c1.1-5.9-1.2-9.1-8.2-9.1c-6.2,0-8.8,2.6-9.7,7.2C787.9,656.9,790.3,660.1,797.4,660.1z"/>
		<path class="st1" d="M827.1,633.8h12.3l-0.5,2.7l-3.8,6.9h3.2c2.7-6.1,7.2-10.3,14.4-10.3c9.5,0,15,7.4,12.6,19.4l-3.4,17.6h-12.3
			l3.2-16.3c1.3-6.8-0.3-9.8-6.5-9.8c-5.6,0-9.3,2.8-11.1,12.3l-2.7,13.9H820L827.1,633.8z"/>
		<path class="st1" d="M890.1,633.1c10.8,0,19.1,5.9,18.5,15.9h-12.3c0-2.7-2.5-5.1-6.8-5.1c-4.4,0-8.1,2.6-8.8,7.8
			c-0.7,5.5,2.3,8.4,7,8.4c4.4,0,7.2-2.6,7.9-5.2h12.4c-1.6,10.3-10.8,15.9-21.3,15.9c-11.1,0-19.7-6.3-18.2-19.2
			C869.8,639.5,879,633.1,890.1,633.1z"/>
		<path class="st1" d="M931.9,633.1c12.5,0,19.7,6.8,17.8,18.2l-0.5,3.2h-26.8c-0.4,4.4,2.2,7,6.6,7c3.4,0,6.5-1.3,7.6-4.3h12.2
			c-1.8,8-9.3,13.6-20.4,13.6c-12.2,0-19.1-7.6-17.9-18.9C911.8,640.2,920.6,633.1,931.9,633.1z M938.4,648.3
			c0.2-3.9-2.4-6.2-6.7-6.2c-4.1,0-7.1,2.2-8.2,6.2H938.4z"/>
	</g>
</g>
<path class="st0" d="M933.3,1088.4h-43.2c-7.7,0-14-6.3-14-14s6.3-14,14-14h26.5c3.2,0,5.8-2.6,5.8-5.8s-2.6-5.8-5.8-5.8h-37.1
	c-3.2,0-5.8,2.6-5.8,5.8v33.8h-12.2v-33.8c0-9.9,8.1-17.9,17.9-17.9h37.1c9.9,0,17.9,8.1,17.9,17.9s-8.1,17.9-17.9,17.9h-26.5
	c-1,0-1.8,0.8-1.8,1.8c0,1,0.8,1.8,1.8,1.8h43.2V1088.4z"/>
<g>
	<path class="st1" d="M326.8,1087.3h-46.2c-8.3,0-15-6.7-15-15s6.7-15,15-15h28.3c3.4,0,6.2-2.8,6.2-6.2s-2.8-6.2-6.2-6.2h-39.7
		c-3.4,0-6.2,2.8-6.2,6.2v36.1h-13v-36.1c0-10.6,8.6-19.2,19.2-19.2h39.7c10.6,0,19.2,8.6,19.2,19.2s-8.6,19.2-19.2,19.2h-28.3
		c-1.1,0-2,0.9-2,2s0.9,2,2,2h46.2V1087.3z"/>
	<g>
		<path class="st1" d="M342.7,1048.6h7.2c4.1,0,8.1,0.8,8,4.7c-0.1,2.8-2.4,4.5-6.3,4.3l-0.2,1.1c1.3,0.3,2.2,0.6,3,2.8l2.1,5.2
			h-5.4l-1.7-4.9c-0.4-1.2-1-1.5-2.2-1.5h-2.1l-1.3,6.4h-4.7L342.7,1048.6z M349.2,1056.5c2.1,0,3.5-0.1,3.7-1.9
			c0.3-1.8-1.2-1.9-3.2-1.9h-3.2l-0.7,3.8H349.2z"/>
		<path class="st1" d="M364.5,1053.5c4.5,0,7,2.4,6.4,6.5l-0.2,1.2h-9.6c-0.1,1.6,0.8,2.5,2.4,2.5c1.2,0,2.3-0.5,2.7-1.5h4.4
			c-0.6,2.9-3.3,4.8-7.3,4.8c-4.4,0-6.8-2.7-6.4-6.8C357.3,1056,360.5,1053.5,364.5,1053.5z M366.9,1058.9c0.1-1.4-0.9-2.2-2.4-2.2
			c-1.5,0-2.5,0.8-2.9,2.2H366.9z"/>
		<path class="st1" d="M379.4,1053.5c3.9,0,6.8,2.1,6.6,5.7h-4.4c0-0.9-0.9-1.8-2.4-1.8c-1.6,0-2.9,0.9-3.2,2.8
			c-0.3,1.9,0.8,3,2.5,3c1.6,0,2.6-0.9,2.8-1.8h4.4c-0.6,3.7-3.8,5.7-7.6,5.7c-3.9,0-7-2.3-6.5-6.9
			C372.1,1055.8,375.4,1053.5,379.4,1053.5z"/>
		<path class="st1" d="M388.5,1053.7h4.4l-0.3,1.5l-1.3,2.4h1.1c0.9-2.3,2.7-3.9,5.3-3.9h1.5l-0.7,3.9h-2.8c-2.1,0-3.7,0.9-4.3,4.4
			l-0.9,4.7H386L388.5,1053.7z"/>
		<path class="st1" d="M398.8,1060l1.2-6.3h4.4l-1.1,5.8c-0.5,2.4,0.1,3.5,2.3,3.5c2,0,3.3-1,4-4.4l0.9-4.9h4.4l-2.5,13H408l0.2-0.9
			l1.4-2.5h-1.2c-0.9,2.2-2.6,3.7-5.1,3.7C399.9,1067,397.9,1064.3,398.8,1060z"/>
		<path class="st1" d="M414.5,1062.8h3.6l1-5.2H416l0.7-3.9h5c1.4,0,2.1,0.7,1.8,2.2l-1.4,6.9h3.7l-0.7,3.9h-11.4L414.5,1062.8z
			 M422.5,1048.2c1.6,0,2.6,0.7,2.4,2.2c-0.2,1.5-1.4,2.2-2.9,2.2c-1.6,0-2.5-0.7-2.3-2.2C419.9,1048.9,421,1048.2,422.5,1048.2z"/>
		<path class="st1" d="M435.9,1066.7h-6.9c-1.5,0-2.1-0.8-1.8-2.3l1.3-6.8h-3.1l0.8-3.9h3.1l0.5-2.3l4.6-1.4l-0.7,3.7h4.3l-0.8,3.9
			h-4.3l-1,5.3l4.8,0L435.9,1066.7z"/>
		<path class="st1" d="M340.1,1078.5c0.5-5.3,4.5-9.4,10.5-9.4c5,0,8.4,2.8,8.5,7.3h-4.8c-0.2-2.1-1.8-3.1-4-3.1
			c-2.7,0-4.9,1.6-5.4,5.1c-0.4,3.7,1.4,5.3,4.2,5.3c2.3,0,4.1-1.1,4.7-3.1h4.8c-0.9,4.6-4.7,7.4-9.7,7.4
			C342.9,1087.9,339.6,1083.9,340.1,1078.5z"/>
		<path class="st1" d="M367.2,1074.3c4,0,7.2,2.1,6.8,6.7c-0.4,4.6-3.9,6.8-7.9,6.8c-4.1,0-7.2-2.1-6.8-6.8
			C359.6,1076.5,363.1,1074.3,367.2,1074.3z M366.4,1083.9c1.7,0,3-0.9,3.2-2.9c0.2-1.9-0.9-2.8-2.7-2.8c-1.8,0-3.1,0.9-3.3,2.8
			C363.4,1083,364.6,1083.9,366.4,1083.9z"/>
		<path class="st1" d="M376.6,1074.6h4.4l-0.1,0.8l-1.4,2.5h1.1c0.9-2.2,2.1-3.4,4.4-3.4c2.4,0,3.3,1.4,3.4,3.4h1
			c0.9-2.2,2.1-3.4,4.3-3.4c4.6,0,3.8,5.4,3.5,7.1l-1.2,6.1h-4.4l1.2-6.1c0.3-1.8,0.5-3.2-1.4-3.2c-2,0-2.7,1.6-3.3,4.7l-0.9,4.7
			h-4.4l1.2-6.1c0.4-1.8,0.5-3.2-1.4-3.2c-2,0-2.7,1.6-3.3,4.7l-0.9,4.7h-4.4L376.6,1074.6z"/>
		<path class="st1" d="M399.9,1074.6h4.4l-0.1,0.5l-1.4,2.3h1.1c0.9-1.5,2.1-3,5-3c4.2,0,5.7,3.3,4.9,7.3c-0.7,3.4-2.7,6.2-6.3,6.2
			c-2.4,0-4.2-1.2-4.7-3.6h-1.1l0.3,2.2l-1.2,6.6h-4.4L399.9,1074.6z M406,1083.9c2.2,0,3.1-0.9,3.5-2.6c0.4-2.1-0.4-3.2-3-3.2
			c-2.3,0-3,0.9-3.4,2.5C402.7,1082.8,403.6,1083.9,406,1083.9z"/>
		<path class="st1" d="M413.7,1083.7h3.6l2.2-11.1h-3.2l0.7-3.8h5.3c1.4,0,2.1,0.7,1.8,2.2l-2.5,12.8h3.6l-0.7,3.9H413L413.7,1083.7
			z"/>
		<path class="st1" d="M426.1,1083.7h3.6l1-5.2h-3.2l0.7-3.9h5c1.4,0,2.1,0.7,1.8,2.2l-1.4,6.9h3.7l-0.7,3.9h-11.4L426.1,1083.7z
			 M434.2,1069.1c1.6,0,2.6,0.7,2.4,2.2c-0.2,1.5-1.4,2.2-2.9,2.2c-1.6,0-2.5-0.7-2.3-2.2C431.5,1069.8,432.6,1069.1,434.2,1069.1z"
			/>
		<path class="st1" d="M438.2,1080.5c0.6-3.4,2.7-6.2,6.3-6.2c2.4,0,4.2,1.2,4.7,3.6h1.1l-0.3-2.2l0.2-1.2h4.4l-2.5,13h-4.4l0.1-0.5
			l1.4-2.3h-1.1c-0.9,1.5-2.1,3-4.9,3C439,1087.8,437.4,1084.6,438.2,1080.5z M445.5,1084c2.3,0,3.1-0.9,3.4-2.5
			c0.4-2.1-0.4-3.3-2.9-3.3c-2.2,0-3.1,0.9-3.5,2.6C442.1,1082.8,442.9,1084,445.5,1084z"/>
		<path class="st1" d="M456.1,1074.6h4.4l-0.2,0.9l-1.4,2.5h1.1c1-2.2,2.6-3.7,5.2-3.7c3.4,0,5.4,2.6,4.5,6.9l-1.2,6.3h-4.4l1.1-5.8
			c0.5-2.4-0.1-3.5-2.3-3.5c-2,0-3.3,1-4,4.4l-1,4.9h-4.4L456.1,1074.6z"/>
		<path class="st1" d="M478.6,1074.3c3.9,0,6.8,2.1,6.6,5.7h-4.4c0-0.9-0.9-1.8-2.4-1.8c-1.6,0-2.9,0.9-3.2,2.8
			c-0.3,1.9,0.8,3,2.5,3c1.6,0,2.6-0.9,2.8-1.8h4.4c-0.6,3.7-3.8,5.7-7.6,5.7c-3.9,0-7-2.3-6.5-6.9
			C471.3,1076.6,474.7,1074.3,478.6,1074.3z"/>
		<path class="st1" d="M493.5,1074.3c4.5,0,7,2.4,6.4,6.5l-0.2,1.2h-9.6c-0.1,1.6,0.8,2.5,2.4,2.5c1.2,0,2.3-0.5,2.7-1.5h4.4
			c-0.6,2.9-3.3,4.8-7.3,4.8c-4.4,0-6.8-2.7-6.4-6.8C486.4,1076.8,489.5,1074.3,493.5,1074.3z M495.9,1079.7
			c0.1-1.4-0.9-2.2-2.4-2.2c-1.5,0-2.5,0.8-2.9,2.2H495.9z"/>
	</g>
</g>
</svg>
