<?xml version="1.0" encoding="utf-8"?>
<!-- Generator: Adobe Illustrator 22.0.0, SVG Export Plug-In . SVG Version: 6.00 Build 0)  -->
<svg version="1.1" id="Layer_1" xmlns="http://www.w3.org/2000/svg" xmlns:xlink="http://www.w3.org/1999/xlink" x="0px" y="0px"
	 viewBox="0 0 1200 1200" style="enable-background:new 0 0 1200 1200;" xml:space="preserve">
<style type="text/css">
	.st0{fill:#1A1A1A;}
	.st1{fill:#FFFFFF;}
</style>
<rect class="st0" width="1200" height="1200"/>
<path class="st1" d="M918.2,1113.5h-40.3c-17.6,0-31.8-14.3-31.8-31.8v-40.3c0-17.6,14.3-31.8,31.8-31.8h40.3
	c17.6,0,31.8,14.3,31.8,31.8v40.3C950,1099.2,935.7,1113.5,918.2,1113.5z"/>
<g>
	<g>
		<path class="st1" d="M487.4,596.9v25.4h-11.8v-61.6h27.2c12.5,0,19.5,7,19.5,18.1c0,9.2-4.7,15.5-13.3,17.5l15.3,26h-13.6
			l-14.9-25.4H487.4z M503,572.3h-15.6v13.1H503c4.5,0,7.4-2.3,7.4-6.5C510.4,574.6,507.5,572.3,503,572.3z"/>
		<path class="st1" d="M540.3,585.2h26.9V597h-26.9v13.6h28.1v11.7h-39.9v-61.6h39.9v11.7h-28.1V585.2z"/>
		<path class="st1" d="M619.3,601.6c-0.5,12.9-10.1,21.5-24.4,21.5c-14.8,0-22.1-9.2-22.1-22.8v-17.8c0-13.6,8.5-22.8,23.2-22.8
			c14.4,0,22.7,8.5,23.2,21.5h-11.9c-0.6-6.3-5.4-9.8-11.4-9.8c-6.4,0-11.4,4-11.4,11.1v17.8c0,7.1,5,11.1,11.4,11.1
			c6,0,10.7-3.4,11.4-9.8H619.3z"/>
		<path class="st1" d="M637.1,596.9v25.4h-11.8v-61.6h27.2c12.5,0,19.5,7,19.5,18.1c0,9.2-4.7,15.5-13.3,17.5l15.3,26h-13.6
			l-14.9-25.4H637.1z M652.7,572.3h-15.6v13.1h15.6c4.5,0,7.4-2.3,7.4-6.5C660.1,574.6,657.2,572.3,652.7,572.3z"/>
		<path class="st1" d="M723.8,560.6v39.7c0,13.6-9.6,22.8-24.4,22.8s-22.1-9.2-22.1-22.8v-39.7h11.8v39.7c0,7.1,5,11.1,11.4,11.1
			c6.4,0,11.4-4,11.4-11.1v-39.7H723.8z"/>
		<path class="st1" d="M743.6,622.2h-11.8v-61.6h11.8V622.2z"/>
		<path class="st1" d="M780.6,572.3v49.9h-12.2v-49.9H749v-11.7h51.2v11.7H780.6z"/>
		<path class="st1" d="M520.2,672.1c-0.5,12.9-8.9,21.5-23.2,21.5c-14.8,0-23.2-9.2-23.2-22.8V653c0-13.6,8.5-22.8,23.2-22.8
			c14.4,0,22.7,8.5,23.2,21.5h-11.9c-0.6-6.3-5.4-9.8-11.4-9.8c-6.4,0-11.4,4-11.4,11.1v17.8c0,7.1,5,11.1,11.4,11.1
			c6,0,10.7-3.4,11.4-9.8H520.2z"/>
		<path class="st1" d="M547.7,693.6c-14.8,0-23.2-9.2-23.2-22.8V653c0-13.6,8.5-22.8,23.2-22.8s23.2,9.2,23.2,22.8v17.8
			C570.9,684.4,562.5,693.6,547.7,693.6z M559.1,653c0-7.1-5-11.1-11.4-11.1c-6.4,0-11.4,4-11.4,11.1v17.8c0,7.1,5,11.1,11.4,11.1
			c6.4,0,11.4-4,11.4-11.1V653z"/>
		<path class="st1" d="M600.3,676.1l-10.7-22.2v38.7h-11.7V631h11.8l15.2,31.7l15.2-31.7H632v61.6h-11.7v-38.7l-10.7,22.2H600.3z"/>
		<path class="st1" d="M652.6,692.7h-11.8V631H666c14.6,0,21.3,10,21.3,21.3c0,11.2-6.7,21.4-21.3,21.4h-13.4V692.7z M666,662
			c6.5,0,9.5-4.9,9.5-9.7s-3-9.6-9.5-9.6h-13.4V662H666z"/>
		<path class="st1" d="M703.4,681h25.7v11.7h-37.5V631h11.8V681z"/>
		<path class="st1" d="M744,692.7h-11.8V631H744V692.7z"/>
		<path class="st1" d="M763.7,680.3l-4.4,12.4H747l22-61.6h11.3l22,61.6H790l-4.4-12.4H763.7z M774.6,649.1l-6.9,20h13.7
			L774.6,649.1z"/>
		<path class="st1" d="M851.8,692.7H840L817.1,653v39.7h-11.8V631h11.8l22.9,39.7V631h11.8V692.7z"/>
		<path class="st1" d="M905.2,672.1c-0.5,12.9-8.9,21.5-23.2,21.5c-14.8,0-23.2-9.2-23.2-22.8V653c0-13.6,8.5-22.8,23.2-22.8
			c14.4,0,22.7,8.5,23.2,21.5h-11.9c-0.6-6.3-5.4-9.8-11.4-9.8c-6.4,0-11.4,4-11.4,11.1v17.8c0,7.1,5,11.1,11.4,11.1
			c6,0,10.7-3.4,11.4-9.8H905.2z"/>
		<path class="st1" d="M923.1,655.7h25.7v11.7h-25.7V681H950v11.7h-38.7V631H950v11.7h-26.9V655.7z"/>
	</g>
	<g>
		<g>
			<path class="st1" d="M250,506.4V692h51V557.5h58c10,10,15.5,15.5,25.5,25.5v16.2h51v-41.7c-19.9-19.9-31.1-31.1-51-51H250z"/>
			<polygon class="st1" points="384.5,599.2 342.8,599.2 342.8,640.9 393.8,692 435.5,692 435.5,650.2 			"/>
		</g>
	</g>
</g>
<g>
	<g>
		<path class="st1" d="M317.8,1060.6v7.2h-3.4v-17.6h7.8c3.6,0,5.6,2,5.6,5.2c0,2.6-1.3,4.4-3.8,5l4.4,7.4h-3.9l-4.3-7.2H317.8z
			 M322.3,1053.6h-4.5v3.7h4.5c1.3,0,2.1-0.7,2.1-1.9C324.4,1054.2,323.6,1053.6,322.3,1053.6z"/>
		<path class="st1" d="M332.9,1057.3h7.7v3.3h-7.7v3.9h8v3.3h-11.4v-17.6H341v3.3h-8V1057.3z"/>
		<path class="st1" d="M355.5,1062c-0.2,3.7-2.9,6.1-7,6.1c-4.2,0-6.3-2.6-6.3-6.5v-5.1c0-3.9,2.4-6.5,6.6-6.5
			c4.1,0,6.5,2.4,6.6,6.1h-3.4c-0.2-1.8-1.5-2.8-3.2-2.8c-1.8,0-3.3,1.1-3.3,3.2v5.1c0,2,1.4,3.2,3.3,3.2c1.7,0,3.1-1,3.2-2.8H355.5
			z"/>
		<path class="st1" d="M360.6,1060.6v7.2h-3.4v-17.6h7.8c3.6,0,5.6,2,5.6,5.2c0,2.6-1.3,4.4-3.8,5l4.4,7.4h-3.9l-4.3-7.2H360.6z
			 M365.1,1053.6h-4.5v3.7h4.5c1.3,0,2.1-0.7,2.1-1.9C367.2,1054.2,366.4,1053.6,365.1,1053.6z"/>
		<path class="st1" d="M385.4,1050.2v11.3c0,3.9-2.8,6.5-7,6.5c-4.2,0-6.3-2.6-6.3-6.5v-11.3h3.4v11.3c0,2,1.4,3.2,3.3,3.2
			s3.3-1.1,3.3-3.2v-11.3H385.4z"/>
		<path class="st1" d="M391,1067.9h-3.4v-17.6h3.4V1067.9z"/>
		<path class="st1" d="M401.6,1053.6v14.3h-3.5v-14.3h-5.6v-3.3h14.6v3.3H401.6z"/>
		<path class="st1" d="M327.2,1082.1c-0.2,3.7-2.5,6.1-6.6,6.1c-4.2,0-6.6-2.6-6.6-6.5v-5.1c0-3.9,2.4-6.5,6.6-6.5
			c4.1,0,6.5,2.4,6.6,6.1h-3.4c-0.2-1.8-1.5-2.8-3.2-2.8c-1.8,0-3.3,1.1-3.3,3.2v5.1c0,2,1.4,3.2,3.3,3.2c1.7,0,3.1-1,3.2-2.8H327.2
			z"/>
		<path class="st1" d="M335.1,1088.2c-4.2,0-6.6-2.6-6.6-6.5v-5.1c0-3.9,2.4-6.5,6.6-6.5c4.2,0,6.6,2.6,6.6,6.5v5.1
			C341.7,1085.6,339.3,1088.2,335.1,1088.2z M338.3,1076.6c0-2-1.4-3.2-3.3-3.2c-1.8,0-3.3,1.1-3.3,3.2v5.1c0,2,1.4,3.2,3.3,3.2
			c1.8,0,3.3-1.1,3.3-3.2V1076.6z"/>
		<path class="st1" d="M350.1,1083.2l-3-6.3v11.1h-3.3v-17.6h3.4l4.4,9.1l4.4-9.1h3.4v17.6h-3.3v-11.1l-3,6.3H350.1z"/>
		<path class="st1" d="M365,1088h-3.4v-17.6h7.2c4.2,0,6.1,2.9,6.1,6.1c0,3.2-1.9,6.1-6.1,6.1H365V1088z M368.8,1079.2
			c1.9,0,2.7-1.4,2.7-2.8c0-1.4-0.9-2.7-2.7-2.7H365v5.5H368.8z"/>
		<path class="st1" d="M379.5,1084.6h7.3v3.3h-10.7v-17.6h3.4V1084.6z"/>
		<path class="st1" d="M391.1,1088h-3.4v-17.6h3.4V1088z"/>
		<path class="st1" d="M396.8,1084.4l-1.3,3.5H392l6.3-17.6h3.2l6.3,17.6h-3.5l-1.3-3.5H396.8z M399.9,1075.5l-2,5.7h3.9
			L399.9,1075.5z"/>
		<path class="st1" d="M421.9,1088h-3.4l-6.5-11.3v11.3h-3.4v-17.6h3.4l6.5,11.3v-11.3h3.4V1088z"/>
		<path class="st1" d="M437.2,1082.1c-0.2,3.7-2.5,6.1-6.6,6.1c-4.2,0-6.6-2.6-6.6-6.5v-5.1c0-3.9,2.4-6.5,6.6-6.5
			c4.1,0,6.5,2.4,6.6,6.1h-3.4c-0.2-1.8-1.5-2.8-3.2-2.8c-1.8,0-3.3,1.1-3.3,3.2v5.1c0,2,1.4,3.2,3.3,3.2c1.7,0,3.1-1,3.2-2.8H437.2
			z"/>
		<path class="st1" d="M442.3,1077.4h7.3v3.3h-7.3v3.9h7.7v3.3h-11.1v-17.6H450v3.3h-7.7V1077.4z"/>
	</g>
	<g>
		<g>
			<path class="st1" d="M250,1034.8v53h14.6v-38.4h16.6c2.8,2.8,4.4,4.4,7.3,7.3v4.6H303v-11.9c-5.7-5.7-8.9-8.9-14.6-14.6H250z"/>
			<polygon class="st1" points="288.4,1061.3 276.5,1061.3 276.5,1073.2 291.1,1087.8 303,1087.8 303,1075.8 			"/>
		</g>
	</g>
</g>
<g>
	<path class="st0" d="M868.5,1030.5v62h17v-44.9h19.4c3.3,3.3,5.2,5.2,8.5,8.5v5.4h17v-13.9c-6.7-6.7-10.4-10.4-17-17.1H868.5z"/>
	<polygon class="st0" points="913.5,1061.5 899.5,1061.5 899.5,1075.4 916.5,1092.5 930.5,1092.5 930.5,1078.6 	"/>
</g>
</svg>
