<?xml version="1.0" encoding="utf-8"?>
<!-- Generator: Adobe Illustrator 22.0.0, SVG Export Plug-In . SVG Version: 6.00 Build 0)  -->
<svg version="1.1" id="Layer_1" xmlns="http://www.w3.org/2000/svg" xmlns:xlink="http://www.w3.org/1999/xlink" x="0px" y="0px"
	 viewBox="0 0 1200 1200" style="enable-background:new 0 0 1200 1200;" xml:space="preserve">
<style type="text/css">
	.st0{fill:#1A1A1A;}
	.st1{fill:#FFFFFF;}
	.st2{opacity:0.6;fill:#FFFFFF;}
	.st3{opacity:0.6;fill:#1A1A1A;}
</style>
<rect class="st0" width="1200" height="1200"/>
<path class="st1" d="M918.2,1114.5h-40.3c-17.6,0-31.8-14.3-31.8-31.8v-40.3c0-17.6,14.3-31.8,31.8-31.8h40.3
	c17.6,0,31.8,14.3,31.8,31.8v40.3C950,1100.2,935.7,1114.5,918.2,1114.5z"/>
<g>
	<g>
		<path class="st1" d="M338,602.8v2c0,7.1,3.3,10.1,10.9,10.1c6.6,0,9.4-2,9.9-6.8h9.9c-2.6,8.2-10.9,14.4-19.8,14.4
			c-11.9,0-20.9-8.9-20.9-21.7c0-12.6,8.9-23,21-23c11.2,0,19.8,9.5,19.8,21.5v3.4H338z M338,595v1h20.9v-1c0-6.8-2.7-9.6-9.8-9.6
			C341.5,585.4,338,588.2,338,595z"/>
		<path class="st1" d="M371,600.2c0-12.6,8.8-22.3,20.4-22.3c9.9,0,18,7.2,19.7,17.4h-9.8c-0.5-7-3.2-9.4-10.1-9.4
			c-7.1,0-10.2,3.3-10.2,10.9v6.9c0,7.7,3,11.1,10.2,11.1c6.9,0,9.6-2.6,10.1-9.6h9.8c-1.6,10.2-9.8,17.5-19.7,17.5
			C379.8,622.6,371,612.9,371,600.2z"/>
		<path class="st1" d="M439.5,577.9v11.2h-7.6c-4.9,0-7.2,2.3-7.2,7.4v25.3h-9.3v-43h8.6v8.8C427.2,582.2,432.8,578.7,439.5,577.9z"
			/>
		<path class="st1" d="M478.6,578.7v43H470v-5.1c-2.9,3.8-7,5.9-11.8,5.9c-9.6,0-16.2-7.2-16.2-17.7v-26.2h9.3v27.4
			c0,5.8,2.6,8.4,8.8,8.4c6.4,0,9.3-2.6,9.3-8.6v-27.1H478.6z"/>
		<path class="st1" d="M483.6,567.6c0-3.8,2.7-6.3,6.5-6.3c3.7,0,6.4,2.5,6.4,6.3c0,3.7-2.7,6.3-6.4,6.3
			C486.3,573.9,483.6,571.3,483.6,567.6z M485.5,578.7h9.3v43h-9.3V578.7z"/>
		<path class="st1" d="M506,609.1v-22.7h-8.9v-7.7h8.9v-15.8h9.2v15.8h11.6v7.7h-11.6v23.2c0,2.8,1.5,4.2,4.3,4.2h6.6v8.4H520
			C511.4,622.2,506,617.1,506,609.1z"/>
		<path class="st1" d="M539.4,592.3c0-17,11-30.3,25.5-30.3c12.4,0,23.2,10.4,24.7,23.8h-10.7c-0.3-10.4-5.3-15.2-14.1-15.2
			c-10.2,0-15.1,5.4-15.1,17.4v8.6c0,11.9,4.9,17.3,15.1,17.3c8.8,0,13.9-4.8,14.1-15.2h10.7c-1.5,13.4-12.3,23.8-24.7,23.8
			C550.4,622.6,539.4,609.3,539.4,592.3z"/>
		<path class="st1" d="M591.9,600.2c0-12.7,9.1-22.3,21.1-22.3c12.1,0,21.2,9.6,21.2,22.3c0,12.7-9.1,22.4-21.2,22.4
			C601,622.6,591.9,612.9,591.9,600.2z M624.1,603.6v-6.9c0-7.6-3.4-10.9-11.1-10.9c-7.6,0-11,3.3-11,10.9v6.9
			c0,7.7,3.4,11.1,11,11.1C620.7,614.7,624.1,611.4,624.1,603.6z"/>
		<path class="st1" d="M701.4,594.9v26.9h-9.3v-27.4c0-5.9-2.5-8.4-8.4-8.4c-6.4,0-9.2,2.7-9.2,8.9v27h-9.3v-27.4
			c0-5.9-2.6-8.4-8.4-8.4c-6.4,0-9.2,2.7-9.2,8.9v27h-9.3v-43h8.6v6.2c3.1-4.5,7.8-7.1,13-7.1c5.8,0,10.7,3.2,13,8.1
			c3.1-5.1,8.1-8.1,13.9-8.1C695.3,577.9,701.4,585,701.4,594.9z"/>
		<path class="st1" d="M749,600.2c0,12.4-8.9,22.4-19.8,22.4c-4.8,0-9.2-2.1-12.3-5.9v22.1h-9.3v-60h8.6v5.8c3-3.9,8.3-6.6,13.3-6.6
			C740.4,577.9,749,587.9,749,600.2z M739,596.8c0-7.7-3.4-11-11.1-11c-7.6,0-11,3.3-11,11v6.9c0,7.6,3.4,11,11,11
			c7.7,0,11.1-3.4,11.1-11V596.8z"/>
		<path class="st1" d="M753.3,562.9h9.3v58.9h-9.3V562.9z"/>
		<path class="st1" d="M767.6,567.6c0-3.8,2.7-6.3,6.5-6.3c3.7,0,6.4,2.5,6.4,6.3c0,3.7-2.7,6.3-6.4,6.3
			C770.3,573.9,767.6,571.3,767.6,567.6z M769.5,578.7h9.3v43h-9.3V578.7z"/>
		<path class="st1" d="M819.4,593.6v28.1h-8.4v-4.3c-2.8,3.3-7,5.1-12.1,5.1c-8.7,0-15.7-5.7-15.7-13.4c0-7.5,6.8-12.4,17.2-12.4h10
			V593c0-5.5-1.7-7.6-8.3-7.6c-6.6,0-8.5,2.1-8.8,7.9h-9c1.1-8.4,8.4-15.3,18.2-15.3C812.4,577.9,819.4,584.3,819.4,593.6z
			 M810.4,608.2v-4.5h-12.1c-3.9,0-5.7,1.5-5.7,4.3v2.3c0,3.4,2.3,5,8,5C807.5,615.3,810.4,613.2,810.4,608.2z"/>
		<path class="st1" d="M863.4,594.9v26.9h-9.3v-27.4c0-5.8-2.9-8.4-9.4-8.4c-6.9,0-9.8,2.7-9.8,8.9v27h-9.3v-43h8.6v6.2
			c3.3-4.5,8.2-7.1,13.9-7.1C856.9,577.9,863.4,585,863.4,594.9z"/>
		<path class="st1" d="M867,600.2c0-12.6,8.8-22.3,20.4-22.3c9.9,0,18,7.2,19.7,17.4h-9.8c-0.5-7-3.2-9.4-10.1-9.4
			c-7.1,0-10.2,3.3-10.2,10.9v6.9c0,7.7,3,11.1,10.2,11.1c6.9,0,9.6-2.6,10.1-9.6h9.8c-1.6,10.2-9.8,17.5-19.7,17.5
			C875.9,622.6,867,612.9,867,600.2z"/>
		<path class="st1" d="M919.1,602.8v2c0,7.1,3.3,10.1,10.9,10.1c6.6,0,9.4-2,9.9-6.8h9.9c-2.6,8.2-10.9,14.4-19.8,14.4
			c-11.9,0-20.9-8.9-20.9-21.7c0-12.6,8.9-23,21-23c11.2,0,19.8,9.5,19.8,21.5v3.4H919.1z M919.1,595v1H940v-1
			c0-6.8-2.7-9.6-9.8-9.6C922.5,585.4,919.1,588.2,919.1,595z"/>
		<g>
			<polygon class="st2" points="267.6,621.8 267.6,604.2 250,604.2 250,594.6 267.6,594.6 267.6,577.1 277.1,577.1 277.1,594.6 
				294.7,594.6 294.7,604.2 277.1,604.2 277.1,621.8 			"/>
			<path class="st1" d="M310.8,621.8l-10.9-16.7v-10.4h9.7c3.9,0,7.1-3.2,7.1-7.1v-8.4c0-3.9-3.2-7.1-7.1-7.1h-42.1v-9.6h37.9
				c11.5,0,20.8,9.3,20.8,20.8c0,9.2-5.9,17.2-14.7,19.9l-1.6,0.5l12.3,18H310.8z"/>
		</g>
	</g>
</g>
<g>
	<g>
		<g>
			<path class="st1" d="M251,1075.6c0-8.3,5.4-14.7,12.4-14.7c6,0,11.3,5.1,12,11.6h-5.2c-0.2-5.1-2.6-7.4-6.9-7.4
				c-5,0-7.3,2.6-7.3,8.5v4.2c0,5.8,2.4,8.4,7.3,8.4c4.3,0,6.7-2.4,6.9-7.4h5.2c-0.7,6.5-6,11.6-12,11.6
				C256.4,1090.3,251,1083.8,251,1075.6z"/>
			<path class="st1" d="M276.6,1079.4c0-6.2,4.4-10.9,10.3-10.9c5.9,0,10.3,4.7,10.3,10.9c0,6.2-4.4,10.9-10.3,10.9
				C281,1090.3,276.6,1085.6,276.6,1079.4z M292.3,1081.1v-3.4c0-3.7-1.6-5.3-5.4-5.3c-3.7,0-5.4,1.6-5.4,5.3v3.4
				c0,3.8,1.6,5.4,5.4,5.4C290.6,1086.5,292.3,1084.8,292.3,1081.1z"/>
			<path class="st1" d="M329.9,1076.8v13.1h-4.5v-13.3c0-2.9-1.2-4.1-4.1-4.1c-3.1,0-4.5,1.3-4.5,4.3v13.1h-4.5v-13.3
				c0-2.9-1.3-4.1-4.1-4.1c-3.1,0-4.5,1.3-4.5,4.3v13.1h-4.5v-21h4.2v3c1.5-2.2,3.8-3.4,6.3-3.4c2.8,0,5.2,1.6,6.3,4
				c1.5-2.5,4-4,6.8-4C327,1068.6,329.9,1072,329.9,1076.8z"/>
			<path class="st1" d="M353.1,1079.4c0,6-4.3,10.9-9.7,10.9c-2.4,0-4.5-1-6-2.9v10.7H333V1069h4.2v2.8c1.5-1.9,4-3.2,6.5-3.2
				C348.9,1068.6,353.1,1073.4,353.1,1079.4z M348.2,1077.8c0-3.8-1.6-5.4-5.4-5.4c-3.7,0-5.4,1.6-5.4,5.4v3.4
				c0,3.7,1.6,5.4,5.4,5.4c3.8,0,5.4-1.6,5.4-5.4V1077.8z"/>
			<path class="st1" d="M355.2,1061.2h4.5v28.7h-4.5V1061.2z"/>
			<path class="st1" d="M362.1,1063.5c0-1.8,1.3-3.1,3.2-3.1c1.8,0,3.1,1.2,3.1,3.1c0,1.8-1.3,3.1-3.1,3.1
				C363.5,1066.6,362.1,1065.3,362.1,1063.5z M363.1,1069h4.5v21h-4.5V1069z"/>
			<path class="st1" d="M387.4,1076.2v13.7h-4.1v-2.1c-1.4,1.6-3.4,2.5-5.9,2.5c-4.2,0-7.6-2.8-7.6-6.5c0-3.6,3.3-6,8.4-6h4.9v-1.8
				c0-2.7-0.8-3.7-4-3.7c-3.2,0-4.2,1-4.3,3.8h-4.4c0.6-4.1,4.1-7.5,8.9-7.5C384,1068.6,387.4,1071.7,387.4,1076.2z M383,1083.3
				v-2.2h-5.9c-1.9,0-2.8,0.7-2.8,2.1v1.1c0,1.7,1.1,2.4,3.9,2.4C381.6,1086.8,383,1085.7,383,1083.3z"/>
			<path class="st1" d="M408.8,1076.8v13.1h-4.5v-13.3c0-2.8-1.4-4.1-4.6-4.1c-3.4,0-4.8,1.3-4.8,4.3v13.1h-4.5v-21h4.2v3
				c1.6-2.2,4-3.4,6.7-3.4C405.6,1068.6,408.8,1072,408.8,1076.8z"/>
			<path class="st1" d="M410.6,1079.4c0-6.2,4.3-10.9,9.9-10.9c4.8,0,8.8,3.5,9.6,8.5h-4.8c-0.2-3.4-1.6-4.6-4.9-4.6
				c-3.5,0-5,1.6-5,5.3v3.4c0,3.8,1.5,5.4,5,5.4c3.4,0,4.7-1.3,4.9-4.7h4.8c-0.8,5-4.8,8.5-9.6,8.5
				C414.9,1090.3,410.6,1085.6,410.6,1079.4z"/>
			<path class="st1" d="M435.9,1080.7v1c0,3.5,1.6,4.9,5.3,4.9c3.2,0,4.6-1,4.8-3.3h4.8c-1.3,4-5.3,7-9.6,7
				c-5.8,0-10.2-4.3-10.2-10.6c0-6.2,4.3-11.2,10.2-11.2c5.4,0,9.7,4.6,9.7,10.5v1.7H435.9z M435.9,1076.9v0.5h10.2v-0.5
				c0-3.3-1.3-4.7-4.8-4.7C437.6,1072.2,435.9,1073.6,435.9,1076.9z"/>
		</g>
		<g>
			<path class="st1" d="M294.2,1047.1v1c0,3.5,1.6,4.9,5.3,4.9c3.2,0,4.6-1,4.8-3.3h4.8c-1.3,4-5.3,7-9.6,7
				c-5.8,0-10.2-4.3-10.2-10.6c0-6.2,4.3-11.2,10.2-11.2c5.4,0,9.7,4.6,9.7,10.5v1.7H294.2z M294.2,1043.2v0.5h10.2v-0.5
				c0-3.3-1.3-4.7-4.8-4.7C295.8,1038.6,294.2,1040,294.2,1043.2z"/>
			<path class="st1" d="M310.2,1045.8c0-6.2,4.3-10.9,9.9-10.9c4.8,0,8.8,3.5,9.6,8.5H325c-0.2-3.4-1.6-4.6-4.9-4.6
				c-3.5,0-5,1.6-5,5.3v3.4c0,3.8,1.5,5.4,5,5.4c3.4,0,4.7-1.3,4.9-4.7h4.8c-0.8,5-4.8,8.5-9.6,8.5
				C314.5,1056.7,310.2,1052,310.2,1045.8z"/>
			<path class="st1" d="M343.6,1034.9v5.4h-3.7c-2.4,0-3.5,1.1-3.5,3.6v12.3h-4.5v-21h4.2v4.3C337.6,1037,340.3,1035.3,343.6,1034.9
				z"/>
			<path class="st1" d="M362.6,1035.3v21h-4.2v-2.5c-1.4,1.8-3.4,2.9-5.8,2.9c-4.7,0-7.9-3.5-7.9-8.6v-12.7h4.5v13.3
				c0,2.8,1.3,4.1,4.3,4.1c3.1,0,4.6-1.3,4.6-4.2v-13.2H362.6z"/>
			<path class="st1" d="M365,1029.9c0-1.8,1.3-3.1,3.2-3.1c1.8,0,3.1,1.2,3.1,3.1c0,1.8-1.3,3.1-3.1,3.1
				C366.4,1033,365,1031.7,365,1029.9z M366,1035.3h4.5v21H366V1035.3z"/>
			<path class="st1" d="M376,1050.1v-11.1h-4.4v-3.8h4.4v-7.7h4.5v7.7h5.7v3.8h-5.7v11.3c0,1.4,0.7,2,2.1,2h3.2v4.1h-3
				C378.6,1056.5,376,1054,376,1050.1z"/>
			<g>
				<polygon class="st2" points="259.8,1056.3 259.8,1047.7 251.3,1047.7 251.3,1043.1 259.8,1043.1 259.8,1034.5 264.5,1034.5 
					264.5,1043.1 273,1043.1 273,1047.7 264.5,1047.7 264.5,1056.3 				"/>
				<path class="st1" d="M280.9,1056.3l-5.3-8.1v-5.1h4.7c1.9,0,3.4-1.5,3.4-3.4v-4.1c0-1.9-1.5-3.4-3.4-3.4h-20.5v-4.7h18.5
					c5.6,0,10.1,4.6,10.1,10.1c0,4.5-2.9,8.4-7.2,9.7l-0.8,0.2l6,8.8H280.9z"/>
			</g>
		</g>
	</g>
</g>
<g>
	<polygon class="st3" points="876.4,1090.5 876.4,1073.9 859.9,1073.9 859.9,1064.8 876.4,1064.8 876.4,1048.3 885.5,1048.3 
		885.5,1064.8 902,1064.8 902,1073.9 885.5,1073.9 885.5,1090.5 	"/>
	<path class="st0" d="M917.3,1090.5l-10.3-15.8v-9.9h9.2c3.7,0,6.7-3,6.7-6.7v-7.9c0-3.7-3-6.7-6.7-6.7h-39.7v-9h35.8
		c10.8,0,19.7,8.8,19.7,19.7c0,8.7-5.6,16.3-13.9,18.8l-1.5,0.5l11.6,17H917.3z"/>
</g>
</svg>
