<?xml version="1.0" encoding="utf-8"?>
<!-- Generator: Adobe Illustrator 22.0.0, SVG Export Plug-In . SVG Version: 6.00 Build 0)  -->
<svg version="1.1" id="Layer_1" xmlns="http://www.w3.org/2000/svg" xmlns:xlink="http://www.w3.org/1999/xlink" x="0px" y="0px"
	 viewBox="0 0 1200 1200" style="enable-background:new 0 0 1200 1200;" xml:space="preserve">
<style type="text/css">
	.st0{fill:#1A1A1A;}
	.st1{fill:#FFFFFF;}
	.st2{opacity:0;fill:#FFFFFF;}
</style>
<rect class="st0" width="1200" height="1200"/>
<path class="st1" d="M918.2,1114.5h-40.3c-17.6,0-31.8-14.3-31.8-31.8v-40.3c0-17.6,14.3-31.8,31.8-31.8h40.3
	c17.6,0,31.8,14.3,31.8,31.8v40.3C950,1100.2,935.7,1114.5,918.2,1114.5z"/>
<g>
	<g>
		<g>
			<path class="st2" d="M256,606.8V453.5h53.3c32.5,0,57.9,14.9,57.9,46.5c0,21.7-13.3,37.5-34.8,42.1c12.4,5.9,19,18.5,27.9,36.6
				l14,28.1h-25.2L336.4,581c-9.2-18.1-16.7-30-38.2-30h-19l-0.2,55.8H256z M279.4,475l-0.2,55.2h30c19.7,0,34.1-9.6,34.1-28.2
				c0-19-15.1-27-33.6-27H279.4z"/>
			<path class="st1" d="M380.5,550.1c0-32.3,23.1-58.6,56.8-58.6c33.9,0,54.9,24.5,54.9,55.8v9.2h-89.7
				c2.5,19.2,17.2,32.7,37.3,32.7c13.7,0,26.1-5.9,32.7-18.3l17.4,8.9c-9.8,19.2-27.9,29.5-49.9,29.5
				C405.9,609.3,380.5,584.6,380.5,550.1z M469.6,541.8c-0.9-17.9-14-30-32.5-30c-19,0-31.4,13.3-33.6,30H469.6z"/>
			<path class="st1" d="M501.5,550.5c0-32.3,26.3-58.8,58.6-58.6c20.6,0,39.6,9.4,49.9,29.5L591.2,532
				c-6.6-12.1-17.9-18.5-31.1-18.5c-19.7,0-35.9,16.7-35.9,37.1c0,20.6,16.2,37.5,35.9,37.5c13.3,0,24.5-6.4,31.1-18.5l18.8,10.3
				c-10.3,20.4-29.3,29.5-49.9,29.5C527.8,609.8,501.5,583,501.5,550.5z"/>
			<path class="st1" d="M619.2,606.8V540c0-27.2,15.6-47.6,44.9-47.6c7.1,0,14.4,1.4,20.1,4.1v22.4c-5.5-3.2-11.9-4.8-18.1-4.8
				c-15.1,0-24.3,10.3-24.3,26.8v65.9H619.2z"/>
			<path class="st1" d="M779.5,548.7v-54h22.7v56.8c0,32.5-19.7,58.1-54.9,58.1c-34.8,0-54.5-25.9-54.5-58.4v-56.5h22.7v54.2
				c0,20.6,11.2,38.7,31.8,38.7C768.1,587.6,779.5,569.5,779.5,548.7z"/>
			<path class="st1" d="M817.5,457.6c0-8.2,6.6-15.1,14.9-15.1c8.2,0,14.6,6.9,14.6,15.1c0,8.2-6.4,14.9-14.6,14.9
				C824.2,472.5,817.5,465.8,817.5,457.6z M843.8,494.7v112.1h-22.7V494.7H843.8z"/>
			<path class="st1" d="M878.3,566.5v-52.2h-22.2v-19.7h22.2v-29.1H901v29.1h43v19.7h-43v51.5c0,14.6,8.7,23.3,22.2,23.3
				c7.3,0,15.3-2.7,20.8-6.6v20.8c-5.7,3.9-14.6,6.4-22.9,6.4C893.2,609.8,878.3,592.2,878.3,566.5z"/>
			<g>
				<path class="st1" d="M380.5,606.8l-32.8-49.5c16.1-10.6,26.5-28.7,26.5-49.3c0-32-25.6-58.6-59.5-58.6c-33.6,0-60,26.3-60,58.6
					c0,0,0,0,0,0l0,0v98.8h22.7v-52.4c10.1,7.9,23,12.7,37.3,12.7c3.3,0,6.6-0.3,9.8-0.8l26.9,40.6H380.5z"/>
				<circle class="st0" cx="314.5" cy="508.3" r="46"/>
			</g>
		</g>
		<g>
			<path class="st1" d="M250,681.2c0-26.2,20.7-47,46.4-47c15.6,0,29.9,8,36.8,21.3l-11.3,6.5c-5.3-9.1-14.4-14.7-26.1-14.7
				c-17.7,0-31.5,14.7-31.5,33.9c0,19.4,13.7,34.3,31.5,34.3c11.7,0,20.9-5.6,26.1-14.7l11.3,6.5c-6.9,13.3-21.2,21.2-36.8,21.2
				C270.7,728.5,250,707.7,250,681.2z"/>
			<path class="st1" d="M337.2,693.5c0-19.2,15.6-34.8,35.6-34.8c20.1,0,35.3,15.8,35.3,34.8c0,19.3-15.4,35.1-35.3,35.1
				C352.7,728.5,337.2,712.8,337.2,693.5z M394.7,693.6c0-12.2-9.5-22.3-21.9-22.3c-12.5,0-22.2,10.1-22.2,22.3
				c0,12.1,9.7,22.2,22.2,22.2C385.2,715.8,394.7,705.7,394.7,693.6z"/>
			<path class="st1" d="M528.4,691.8v35.1h-13.5V694c0-12.1-6-22.7-18.5-22.7c-12.1,0-18.2,10.2-18.2,22.4v33.2h-13.5v-33.2
				c0-12.2-6.1-22.4-18.5-22.4c-12.5,0-18.1,10.6-18.1,22.7v32.9h-13.5V692c0-18.6,10.6-33.6,30.6-33.6c13.3,0,23,6.8,26.4,17.1
				c3.7-10.3,13.1-17.1,25.7-17.1C517.5,658.4,528.4,673.3,528.4,691.8z"/>
			<path class="st1" d="M539.2,757.5v-64c0-19.8,15.4-34.8,35.5-34.8s35.3,15.8,35.3,34.8c0,20.1-14.5,35.1-34.8,35.1
				c-9,0-17.1-3.9-22.6-9.9v38.9H539.2z M596.6,693.6c0-12.2-9.5-22.2-21.9-22.2c-12.5,0-22,9.9-22,22.2c0,12.1,9.5,22.3,22,22.3
				C587.1,715.9,596.6,705.7,596.6,693.6z"/>
			<path class="st1" d="M633,629.7v97.2h-13.5v-97.2H633z"/>
			<path class="st1" d="M643.3,638.3c0-4.9,3.9-9,8.8-9c4.9,0,8.7,4.1,8.7,9c0,4.9-3.8,8.8-8.7,8.8
				C647.2,647.1,643.3,643.2,643.3,638.3z M658.9,660.3v66.6h-13.5v-66.6H658.9z"/>
			<path class="st1" d="M666.4,693.5c0-19,15.2-34.8,35.5-34.8c20.1,0,35.5,15,35.5,34.8v33.4h-12.8v-11.7
				c-5,8.2-13.9,13.3-24.7,13.3C680.5,728.5,666.4,712.8,666.4,693.5z M723.9,693.6c0-12.2-9.5-22.3-22-22.3
				c-12.4,0-22,10.1-22,22.3c0,12.1,9.7,22.2,22,22.2C714.4,715.8,723.9,705.7,723.9,693.6z"/>
			<path class="st1" d="M759.9,694.7v32.2h-13.5v-33.6c0-19.4,11.6-34.7,33-34.7c21.8,0,33.6,15.2,33.6,34.5v33.7h-13.5v-32.1
				c0-12.5-6.8-23.2-20.1-23.2C766.4,671.6,759.9,682.3,759.9,694.7z"/>
			<path class="st1" d="M818,693.5c0-19.2,15.6-34.9,34.8-34.8c12.2,0,23.5,5.6,29.6,17.5l-11.1,6.3c-3.9-7.2-10.6-11-18.5-11
				c-11.7,0-21.3,9.9-21.3,22c0,12.2,9.7,22.3,21.3,22.3c7.9,0,14.5-3.8,18.5-11l11.1,6.1c-6.1,12.1-17.4,17.5-29.6,17.5
				C833.6,728.7,818,712.8,818,693.5z"/>
			<path class="st1" d="M883.7,693.2c0-19.2,13.7-34.8,33.7-34.8c20.1,0,32.6,14.5,32.6,33.2v5.4h-53.3
				c1.5,11.4,10.2,19.4,22.2,19.4c8.2,0,15.5-3.5,19.4-10.9l10.3,5.3c-5.8,11.4-16.6,17.5-29.6,17.5
				C898.7,728.4,883.7,713.7,883.7,693.2z M936.5,688.3c-0.5-10.6-8.3-17.8-19.3-17.8c-11.3,0-18.6,7.9-20,17.8H936.5z"/>
		</g>
	</g>
</g>
<path class="st0" d="M912.9,1075c6.9-4.5,11.4-12.3,11.4-21.2c0-13.8-11-25.2-25.5-25.2c-14.4,0-25.7,11.3-25.7,25.2c0,0,0,0,0,0
	v42.4h9.7v-22.5c4.4,3.4,9.9,5.4,16,5.4c1.4,0,2.8-0.1,4.2-0.4l11.5,17.4H927L912.9,1075z M898.6,1073.7c-10.9,0-19.7-8.8-19.7-19.7
	s8.8-19.7,19.7-19.7c10.9,0,19.7,8.8,19.7,19.7S909.5,1073.7,898.6,1073.7z"/>
<g>
	<g>
		<g>
			<path class="st2" d="M251.7,1071.5v-43.8H267c9.3,0,16.5,4.3,16.5,13.3c0,6.2-3.8,10.7-9.9,12c3.5,1.7,5.4,5.3,8,10.5l4,8h-7.2
				l-3.7-7.4c-2.6-5.2-4.8-8.6-10.9-8.6h-5.4l-0.1,16H251.7z M258.4,1033.8l-0.1,15.8h8.6c5.6,0,9.7-2.7,9.7-8
				c0-5.4-4.3-7.7-9.6-7.7H258.4z"/>
			<path class="st1" d="M287.3,1055.2c0-9.2,6.6-16.7,16.2-16.7c9.7,0,15.7,7,15.7,16v2.6h-25.6c0.7,5.5,4.9,9.4,10.7,9.4
				c3.9,0,7.5-1.7,9.4-5.2l5,2.6c-2.8,5.5-8,8.4-14.3,8.4C294.6,1072.2,287.3,1065.1,287.3,1055.2z M312.7,1052.9
				c-0.3-5.1-4-8.6-9.3-8.6c-5.4,0-9,3.8-9.6,8.6H312.7z"/>
			<path class="st1" d="M321.9,1055.4c0-9.2,7.5-16.8,16.7-16.7c5.9,0,11.3,2.7,14.3,8.4l-5.4,3c-1.9-3.5-5.1-5.3-8.9-5.3
				c-5.6,0-10.3,4.8-10.3,10.6c0,5.9,4.6,10.7,10.3,10.7c3.8,0,7-1.8,8.9-5.3l5.4,2.9c-2.9,5.8-8.4,8.4-14.3,8.4
				C329.4,1072.3,321.9,1064.7,321.9,1055.4z"/>
			<path class="st1" d="M355.5,1071.5v-19.1c0-7.8,4.4-13.6,12.8-13.6c2,0,4.1,0.4,5.8,1.2v6.4c-1.6-0.9-3.4-1.4-5.2-1.4
				c-4.3,0-6.9,2.9-6.9,7.7v18.8H355.5z"/>
			<path class="st1" d="M401.3,1054.8v-15.4h6.5v16.2c0,9.3-5.6,16.6-15.7,16.6c-9.9,0-15.6-7.4-15.6-16.7v-16.2h6.5v15.5
				c0,5.9,3.2,11.1,9.1,11.1C398,1066,401.3,1060.8,401.3,1054.8z"/>
			<path class="st1" d="M412.1,1028.8c0-2.4,1.9-4.3,4.3-4.3c2.4,0,4.2,2,4.2,4.3c0,2.4-1.8,4.3-4.2,4.3
				C414,1033.1,412.1,1031.2,412.1,1028.8z M419.7,1039.4v32h-6.5v-32H419.7z"/>
			<path class="st1" d="M429.5,1059.9V1045h-6.3v-5.6h6.3v-8.3h6.5v8.3h12.3v5.6H436v14.7c0,4.2,2.5,6.7,6.3,6.7
				c2.1,0,4.4-0.8,6-1.9v6c-1.6,1.1-4.2,1.8-6.5,1.8C433.8,1072.3,429.5,1067.3,429.5,1059.9z"/>
			<g>
				<path class="st1" d="M287.3,1071.5l-9.4-14.1c4.6-3,7.6-8.2,7.6-14.1c0-9.2-7.3-16.7-17-16.7c-9.6,0-17.1,7.5-17.1,16.7
					c0,0,0,0,0,0l0,0v28.2h6.5v-15c2.9,2.3,6.6,3.6,10.7,3.6c1,0,1.9-0.1,2.8-0.2l7.7,11.6H287.3z"/>
				<circle class="st0" cx="268.4" cy="1043.3" r="13.1"/>
			</g>
		</g>
		<g>
			<path class="st1" d="M250,1092.7c0-7.5,5.9-13.4,13.2-13.4c4.5,0,8.5,2.3,10.5,6.1l-3.2,1.9c-1.5-2.6-4.1-4.2-7.5-4.2
				c-5,0-9,4.2-9,9.7c0,5.6,3.9,9.8,9,9.8c3.3,0,6-1.6,7.5-4.2l3.2,1.9c-2,3.8-6.1,6.1-10.5,6.1C255.9,1106.2,250,1100.3,250,1092.7
				z"/>
			<path class="st1" d="M274.9,1096.2c0-5.5,4.5-9.9,10.2-9.9c5.7,0,10.1,4.5,10.1,9.9c0,5.5-4.4,10-10.1,10
				C279.3,1106.2,274.9,1101.7,274.9,1096.2z M291.3,1096.2c0-3.5-2.7-6.4-6.3-6.4c-3.6,0-6.3,2.9-6.3,6.4c0,3.5,2.8,6.3,6.3,6.3
				C288.6,1102.6,291.3,1099.7,291.3,1096.2z"/>
			<path class="st1" d="M329.5,1095.7v10h-3.8v-9.4c0-3.5-1.7-6.5-5.3-6.5c-3.5,0-5.2,2.9-5.2,6.4v9.5h-3.8v-9.5
				c0-3.5-1.7-6.4-5.3-6.4c-3.6,0-5.2,3-5.2,6.5v9.4h-3.8v-10c0-5.3,3-9.6,8.7-9.6c3.8,0,6.6,1.9,7.5,4.9c1-3,3.7-4.9,7.3-4.9
				C326.4,1086.2,329.5,1090.5,329.5,1095.7z"/>
			<path class="st1" d="M332.6,1114.5v-18.3c0-5.7,4.4-9.9,10.1-9.9c5.7,0,10.1,4.5,10.1,9.9c0,5.7-4.2,10-9.9,10
				c-2.6,0-4.9-1.1-6.4-2.8v11.1H332.6z M349,1096.2c0-3.5-2.7-6.3-6.3-6.3c-3.6,0-6.3,2.8-6.3,6.3c0,3.5,2.7,6.4,6.3,6.4
				C346.3,1102.6,349,1099.7,349,1096.2z"/>
			<path class="st1" d="M359.4,1078v27.8h-3.8V1078H359.4z"/>
			<path class="st1" d="M362.4,1080.4c0-1.4,1.1-2.6,2.5-2.6c1.4,0,2.5,1.2,2.5,2.6s-1.1,2.5-2.5,2.5
				C363.5,1083,362.4,1081.8,362.4,1080.4z M366.8,1086.7v19H363v-19H366.8z"/>
			<path class="st1" d="M369,1096.2c0-5.4,4.4-9.9,10.1-9.9c5.7,0,10.1,4.3,10.1,9.9v9.6h-3.7v-3.3c-1.4,2.3-4,3.8-7.1,3.8
				C373,1106.2,369,1101.7,369,1096.2z M385.4,1096.2c0-3.5-2.7-6.4-6.3-6.4c-3.5,0-6.3,2.9-6.3,6.4c0,3.5,2.8,6.3,6.3,6.3
				C382.7,1102.6,385.4,1099.7,385.4,1096.2z"/>
			<path class="st1" d="M395.7,1096.6v9.2h-3.8v-9.6c0-5.6,3.3-9.9,9.4-9.9c6.2,0,9.6,4.4,9.6,9.9v9.6H407v-9.2
				c0-3.6-1.9-6.6-5.7-6.6C397.6,1090,395.7,1093,395.7,1096.6z"/>
			<path class="st1" d="M412.3,1096.2c0-5.5,4.5-10,9.9-9.9c3.5,0,6.7,1.6,8.5,5l-3.2,1.8c-1.1-2.1-3-3.1-5.3-3.1
				c-3.3,0-6.1,2.8-6.1,6.3c0,3.5,2.8,6.4,6.1,6.4c2.3,0,4.2-1.1,5.3-3.1l3.2,1.7c-1.7,3.5-5,5-8.5,5
				C416.7,1106.3,412.3,1101.7,412.3,1096.2z"/>
			<path class="st1" d="M431,1096.1c0-5.5,3.9-9.9,9.6-9.9c5.7,0,9.3,4.2,9.3,9.5v1.6h-15.2c0.4,3.3,2.9,5.6,6.3,5.6
				c2.3,0,4.4-1,5.6-3.1l3,1.5c-1.7,3.3-4.7,5-8.5,5C435.4,1106.2,431,1102,431,1096.1z M446.2,1094.7c-0.2-3-2.4-5.1-5.5-5.1
				c-3.2,0-5.3,2.3-5.7,5.1H446.2z"/>
		</g>
	</g>
</g>
</svg>
