<?xml version="1.0" encoding="utf-8"?>
<!-- Generator: Adobe Illustrator 22.0.0, SVG Export Plug-In . SVG Version: 6.00 Build 0)  -->
<svg version="1.1" id="Layer_1" xmlns="http://www.w3.org/2000/svg" xmlns:xlink="http://www.w3.org/1999/xlink" x="0px" y="0px"
	 viewBox="0 0 1200 1200" style="enable-background:new 0 0 1200 1200;" xml:space="preserve">
<style type="text/css">
	.st0{fill:#FFFFFF;}
	.st1{fill:#1A1A1A;}
</style>
<rect class="st0" width="1200" height="1200"/>
<path class="st1" d="M918.2,1114.5h-40.3c-17.6,0-31.8-14.3-31.8-31.8v-40.3c0-17.6,14.3-31.8,31.8-31.8h40.3
	c17.6,0,31.8,14.3,31.8,31.8v40.3C950,1100.2,935.7,1114.5,918.2,1114.5z"/>
<g>
	<polygon class="st1" points="409.6,599.3 443.4,565.4 398,520 250,520 250,565.4 278.2,565.4 278.2,633.6 250,633.6 250,679 
		351,679 351,633.6 322.8,633.6 322.8,565.4 387.8,565.4 354,599.2 354.1,599.3 354,599.4 388.2,633.6 362.8,633.6 362.8,679 
		466.2,679 466.2,633.6 443.8,633.6 	"/>
	<path class="st1" d="M512.6,607.1l6.6,12.2h13l-7.3-12.3c-3.6-6.1-5.5-7.5-8.1-8.2l-3.1-0.8l3.2-0.2c8-0.4,12.6-4.7,12.6-12
		c0-7.6-6.6-11.3-20.1-11.3h-19.7v44.8h10.9V603h5.8C509.4,603,511,604.1,512.6,607.1z M500.6,583.8h8.8c4.4,0,9.3,0,9.3,5.4
		c0,5.2-4.5,5.2-9.3,5.2h-8.8L500.6,583.8L500.6,583.8z"/>
	<polygon class="st1" points="545.8,601.2 567.2,601.2 567.2,592.5 545.8,592.5 545.8,583.8 570.4,583.8 570.4,574.5 534.9,574.5 
		534.9,619.3 570.4,619.3 570.4,610 545.8,610 	"/>
	<path class="st1" d="M596.6,620.2c12.7,0,21.1-6.6,22.6-17.7H608c-1.2,4.9-5.5,7.9-11.4,7.9c-8,0-12.7-5-12.7-13.6
		s4.6-13.6,12.7-13.6c5.9,0,10.2,3,11.4,7.9h11.2c-1.6-11-10-17.6-22.6-17.6c-14.2,0-23.8,9.4-23.8,23.3
		C572.8,610.8,582.4,620.2,596.6,620.2z"/>
	<path class="st1" d="M646.3,607.1l6.6,12.2h13l-7.3-12.3c-3.6-6.1-5.5-7.5-8.1-8.2l-3.1-0.8l3.2-0.2c8-0.4,12.6-4.7,12.6-12
		c0-7.6-6.6-11.3-20.1-11.3h-19.7v44.8h10.9V603h5.8C643.1,603,644.6,604.1,646.3,607.1z M634.3,594.4v-10.6h8.8
		c4.3,0,9.3,0,9.3,5.4c0,5.2-4.5,5.2-9.3,5.2L634.3,594.4L634.3,594.4z"/>
	<path class="st1" d="M688.4,620.1c13.7,0,21-6,21-17.4v-28.3h-10.8v22.7c0,7.6,0,13.6-10.1,13.6c-10,0-10-5.7-10-13.6v-22.7h-10.8
		v28.3C667.6,614.1,674.8,620.1,688.4,620.1z"/>
	<polygon class="st1" points="734.7,583.8 745.2,583.8 745.2,574.5 713.5,574.5 713.5,583.8 723.9,583.8 723.9,609.9 713.5,609.9 
		713.5,619.3 745.2,619.3 745.2,609.9 734.7,609.9 	"/>
	<polygon class="st1" points="763.1,619.3 773.9,619.3 773.9,583.8 788.6,583.8 788.6,574.5 748.3,574.5 748.3,583.8 763.1,583.8 	
		"/>
	<path class="st1" d="M523.2,650.9h11.2c-1.6-11-10-17.6-22.6-17.6c-14.2,0-23.8,9.4-23.8,23.3c0,14,9.6,23.4,23.8,23.4
		c12.7,0,21.1-6.6,22.6-17.7h-11.2c-1.2,4.9-5.5,7.9-11.4,7.9c-8,0-12.7-5-12.7-13.6s4.6-13.6,12.7-13.6
		C517.7,643.1,522,646.1,523.2,650.9z"/>
	<path class="st1" d="M560.3,633.3c-14.1,0-23.6,9.4-23.6,23.3c0,14,9.5,23.4,23.6,23.4s23.5-9.4,23.5-23.4
		C583.8,642.7,574.4,633.3,560.3,633.3z M560.3,670.3c-8,0-12.4-4.8-12.4-13.6s4.4-13.6,12.4-13.6s12.3,4.8,12.3,13.6
		C572.6,665.4,568.3,670.3,560.3,670.3z"/>
	<polygon class="st1" points="633.4,638 634.4,638.1 634.4,679.1 645.1,679.1 645.1,634.2 623.9,634.2 616.8,679.1 626,679.1 	"/>
	<polygon class="st1" points="588.1,634.2 588.1,679.1 599,679.1 599,638.1 600,638 607.3,679.1 616.7,679.1 609.6,634.2 	"/>
	<path class="st1" d="M668.9,634.2h-17.6V679h10.8v-12.6h6.7c14.2,0,20.2-4.8,20.2-16.1C689.2,638.9,683.3,634.2,668.9,634.2z
		 M669.6,657.2h-7.5v-13.6h7.5c6.2,0,8.8,2,8.8,6.9C678.4,655.2,675.9,657.2,669.6,657.2z"/>
	<path class="st1" d="M703.7,634.2h-10.8v39.4c0,3.5,1.9,5.4,5.5,5.4h27.3v-9.4h-22V634.2z"/>
	<polygon class="st1" points="749.7,643.6 760.1,643.6 760.1,634.2 728.4,634.2 728.4,643.6 738.9,643.6 738.9,669.7 728.4,669.7 
		728.4,679.1 760.1,679.1 760.1,669.7 749.7,669.7 	"/>
	<path class="st1" d="M776.5,634.2L762.1,679h11.4l4.3-13.9H796l4.3,13.9h11.5l-14.3-44.8H776.5z M780.7,655.9l6.1-19.7l6.1,19.7
		H780.7z"/>
	<polygon class="st1" points="824.4,634.2 838.2,679.1 848.7,679.1 835,634.2 	"/>
	<rect x="848.8" y="634.2" class="st1" width="10.8" height="44.8"/>
	<rect x="813.6" y="634.2" class="st1" width="10.8" height="44.8"/>
	<path class="st1" d="M899.2,650.9h11.2c-1.6-11-10-17.6-22.6-17.6c-14.2,0-23.8,9.4-23.8,23.3c0,14,9.6,23.4,23.8,23.4
		c12.7,0,21.1-6.6,22.6-17.7h-11.2c-1.2,4.9-5.5,7.9-11.4,7.9c-8,0-12.7-5-12.7-13.6s4.6-13.6,12.7-13.6
		C893.7,643.1,898,646.1,899.2,650.9z"/>
	<polygon class="st1" points="950,643.6 950,634.2 914.5,634.2 914.5,679.1 950,679.1 950,669.7 925.4,669.7 925.4,661 946.7,661 
		946.7,652.2 925.4,652.2 925.4,643.6 	"/>
</g>
<g>
	<polygon class="st1" points="307,1062.3 319.1,1050.2 302.9,1033.9 250,1033.9 250,1050.2 260.1,1050.2 260.1,1074.5 250,1074.5 
		250,1090.7 286.1,1090.7 286.1,1074.5 276,1074.5 276,1050.2 299.2,1050.2 287.2,1062.2 287.2,1062.3 287.2,1062.3 299.4,1074.5 
		290.3,1074.5 290.3,1090.7 327.2,1090.7 327.2,1074.5 319.2,1074.5 	"/>
	<path class="st1" d="M343.8,1065.1l2.4,4.3h4.6l-2.6-4.4c-1.3-2.2-2-2.7-2.9-2.9l-1.1-0.3l1.2-0.1c2.9-0.1,4.5-1.7,4.5-4.3
		c0-2.7-2.3-4-7.2-4h-7v16h3.9v-5.8h2.1C342.6,1063.6,343.2,1064,343.8,1065.1z M339.5,1056.7h3.2c1.6,0,3.3,0,3.3,1.9
		s-1.6,1.9-3.3,1.9h-3.2V1056.7z"/>
	<polygon class="st1" points="355.7,1062.9 363.3,1062.9 363.3,1059.8 355.7,1059.8 355.7,1056.7 364.4,1056.7 364.4,1053.4 
		351.8,1053.4 351.8,1069.4 364.4,1069.4 364.4,1066.1 355.7,1066.1 	"/>
	<path class="st1" d="M373.8,1069.7c4.5,0,7.5-2.4,8.1-6.3h-4c-0.4,1.8-2,2.8-4.1,2.8c-2.9,0-4.5-1.8-4.5-4.9s1.6-4.8,4.5-4.8
		c2.1,0,3.7,1.1,4.1,2.8h4c-0.6-3.9-3.6-6.3-8.1-6.3c-5.1,0-8.5,3.3-8.5,8.3C365.3,1066.4,368.7,1069.7,373.8,1069.7z"/>
	<path class="st1" d="M391.5,1065.1l2.4,4.3h4.6l-2.6-4.4c-1.3-2.2-2-2.7-2.9-2.9l-1.1-0.3l1.2-0.1c2.9-0.1,4.5-1.7,4.5-4.3
		c0-2.7-2.3-4-7.2-4h-7v16h3.9v-5.8h2.1C390.4,1063.6,390.9,1064,391.5,1065.1z M387.2,1060.5v-3.8h3.2c1.6,0,3.3,0,3.3,1.9
		s-1.6,1.9-3.3,1.9H387.2z"/>
	<path class="st1" d="M406.6,1069.7c4.9,0,7.5-2.1,7.5-6.2v-10.1h-3.9v8.1c0,2.7,0,4.9-3.6,4.9s-3.6-2-3.6-4.9v-8.1h-3.9v10.1
		C399.1,1067.5,401.7,1069.7,406.6,1069.7z"/>
	<polygon class="st1" points="423.1,1056.7 426.9,1056.7 426.9,1053.4 415.5,1053.4 415.5,1056.7 419.3,1056.7 419.3,1066 
		415.5,1066 415.5,1069.4 426.9,1069.4 426.9,1066 423.1,1066 	"/>
	<polygon class="st1" points="433.2,1069.4 437.1,1069.4 437.1,1056.7 442.4,1056.7 442.4,1053.4 428,1053.4 428,1056.7 
		433.2,1056.7 	"/>
	<path class="st1" d="M347.6,1080.7h4c-0.6-3.9-3.6-6.3-8.1-6.3c-5.1,0-8.5,3.3-8.5,8.3s3.4,8.3,8.5,8.3c4.5,0,7.5-2.4,8.1-6.3h-4
		c-0.4,1.8-2,2.8-4.1,2.8c-2.9,0-4.5-1.8-4.5-4.9s1.6-4.8,4.5-4.8C345.6,1077.9,347.2,1078.9,347.6,1080.7z"/>
	<path class="st1" d="M360.8,1074.4c-5,0-8.4,3.3-8.4,8.3s3.4,8.3,8.4,8.3s8.4-3.4,8.4-8.3C369.2,1077.7,365.8,1074.4,360.8,1074.4z
		 M360.8,1087.6c-2.9,0-4.4-1.7-4.4-4.9c0-3.1,1.6-4.8,4.4-4.8s4.4,1.7,4.4,4.8C365.2,1085.9,363.7,1087.6,360.8,1087.6z"/>
	<polygon class="st1" points="386.9,1076.1 387.3,1076.1 387.3,1090.7 391.1,1090.7 391.1,1074.7 383.5,1074.7 381,1090.7 
		384.3,1090.7 	"/>
	<polygon class="st1" points="370.8,1074.7 370.8,1090.7 374.6,1090.7 374.6,1076.1 375,1076.1 377.6,1090.7 381,1090.7 
		378.4,1074.7 	"/>
	<path class="st1" d="M399.6,1074.7h-6.3v16h3.9v-4.5h2.4c5.1,0,7.2-1.7,7.2-5.7C406.8,1076.4,404.8,1074.7,399.6,1074.7z
		 M399.9,1082.9h-2.7v-4.9h2.7c2.2,0,3.1,0.7,3.1,2.5C403,1082.2,402.1,1082.9,399.9,1082.9z"/>
	<path class="st1" d="M412.1,1074.7h-3.9v14.1c0,1.3,0.7,1.9,2,1.9h9.8v-3.4h-7.9V1074.7z"/>
	<polygon class="st1" points="428.5,1078.1 432.2,1078.1 432.2,1074.7 420.9,1074.7 420.9,1078.1 424.6,1078.1 424.6,1087.4 
		420.9,1087.4 420.9,1090.7 432.2,1090.7 432.2,1087.4 428.5,1087.4 	"/>
	<path class="st1" d="M438,1074.7l-5.1,16h4.1l1.5-4.9h6.5l1.5,4.9h4.1l-5.1-16H438z M439.5,1082.5l2.2-7l2.2,7H439.5z"/>
	<polygon class="st1" points="455.2,1074.7 460.1,1090.7 463.8,1090.7 458.9,1074.7 	"/>
	<rect x="463.8" y="1074.7" class="st1" width="3.9" height="16"/>
	<rect x="451.3" y="1074.7" class="st1" width="3.9" height="16"/>
	<path class="st1" d="M481.9,1080.7h4c-0.6-3.9-3.6-6.3-8.1-6.3c-5.1,0-8.5,3.3-8.5,8.3s3.4,8.3,8.5,8.3c4.5,0,7.5-2.4,8.1-6.3h-4
		c-0.4,1.8-2,2.8-4.1,2.8c-2.9,0-4.5-1.8-4.5-4.9s1.6-4.8,4.5-4.8C479.9,1077.9,481.4,1078.9,481.9,1080.7z"/>
	<polygon class="st1" points="500,1078.1 500,1074.7 487.3,1074.7 487.3,1090.7 500,1090.7 500,1087.4 491.2,1087.4 491.2,1084.3 
		498.8,1084.3 498.8,1081.2 491.2,1081.2 491.2,1078.1 	"/>
</g>
<polygon class="st0" points="928,1073.3 917.1,1062.4 927.8,1051.7 913.5,1037.4 866.7,1037.4 866.7,1051.7 875.6,1051.7 
	875.6,1073.3 866.7,1073.3 866.7,1087.6 898.6,1087.6 898.6,1073.3 889.7,1073.3 889.7,1051.7 910.3,1051.7 899.6,1062.4 
	899.6,1062.4 899.6,1062.5 910.4,1073.3 902.4,1073.3 902.4,1087.6 935,1087.6 935,1073.3 "/>
</svg>
