<?xml version="1.0" encoding="utf-8"?>
<!-- Generator: Adobe Illustrator 22.0.0, SVG Export Plug-In . SVG Version: 6.00 Build 0)  -->
<svg version="1.1" id="Layer_1" xmlns="http://www.w3.org/2000/svg" xmlns:xlink="http://www.w3.org/1999/xlink" x="0px" y="0px"
	 viewBox="0 0 1200 1200" style="enable-background:new 0 0 1200 1200;" xml:space="preserve">
<style type="text/css">
	.st0{fill:#FFFFFF;}
	.st1{fill:#203F58;}
</style>
<rect class="st0" width="1200" height="1200"/>
<path class="st1" d="M760.6,739.2c76.8-50.5,126.2-137,126.2-235c0-152.8-122.3-279.5-283.8-279.5c-160.5,0-286,125.5-286,279.5l0,0
	v471.1h108.1V725.4c48.4,37.7,109.8,60.4,177.9,60.4c16,0,31.5-1.6,46.6-4l128.1,193.4H917L760.6,739.2z M601.9,719.9
	c-118.5,0-214.6-96.1-214.6-214.6s96.1-214.6,214.6-214.6s214.6,96.1,214.6,214.6S720.5,719.9,601.9,719.9z"/>
</svg>
