<?xml version="1.0" encoding="utf-8"?>
<!-- Generator: Adobe Illustrator 22.0.0, SVG Export Plug-In . SVG Version: 6.00 Build 0)  -->
<svg version="1.1" id="logotype" xmlns="http://www.w3.org/2000/svg" xmlns:xlink="http://www.w3.org/1999/xlink" x="0px" y="0px"
	 viewBox="0 0 1000 450" style="enable-background:new 0 0 1000 450;" xml:space="preserve">
<style type="text/css">
	.st0{fill:#203F58;}
	.st1{fill:#FFDD33;}
</style>
<g>
	<g>
		<path class="st0" d="M187.4,153.7c0-46.1,33-83.7,81.1-83.7c48.4,0,78.5,35,78.5,79.8v13.1H218.8c3.6,27.5,24.5,46.8,53.3,46.8
			c19.6,0,37.3-8.5,46.8-26.2l24.8,12.8c-14.1,27.5-39.9,42.2-71.3,42.2C223.7,238.3,187.4,203,187.4,153.7z M314.6,141.9
			c-1.3-25.5-19.9-42.8-46.4-42.8c-27.1,0-44.8,19-48.1,42.8H314.6z"/>
		<path class="st0" d="M360.2,154.3c0-46.1,37.6-84,83.7-83.7c29.4,0,56.6,13.4,71.3,42.2l-26.8,15c-9.5-17.3-25.5-26.5-44.5-26.5
			c-28.1,0-51.3,23.9-51.3,53c0,29.4,23.2,53.6,51.3,53.6c19,0,35-9.2,44.5-26.5l26.8,14.7c-14.7,29.1-41.9,42.2-71.3,42.2
			C397.8,239,360.2,200.7,360.2,154.3z"/>
		<path class="st0" d="M528.3,234.8v-95.5c0-38.9,22.2-68,64.1-68c10.1,0,20.6,2,28.8,5.9v32c-7.8-4.6-17-6.9-25.8-6.9
			c-21.6,0-34.7,14.7-34.7,38.3v94.2H528.3z"/>
		<path class="st0" d="M757.4,151.7V74.5h32.4v81.1c0,46.4-28.1,83-78.5,83c-49.7,0-77.8-36.9-77.8-83.4V74.5h32.4V152
			c0,29.4,16,55.3,45.4,55.3C741,207.3,757.4,181.5,757.4,151.7z"/>
		<path class="st0" d="M811.7,21.6C811.7,9.8,821.2,0,833,0s20.9,9.8,20.9,21.6s-9.2,21.3-20.9,21.3S811.7,33.3,811.7,21.6z
			 M849.2,74.5v160.2h-32.4V74.5H849.2z"/>
		<path class="st0" d="M898.5,177.2v-74.5h-31.7V74.5h31.7V33h32.4v41.5h61.5v28.1h-61.5v73.6c0,20.9,12.4,33.3,31.7,33.3
			c10.5,0,21.9-3.9,29.8-9.5v29.8c-8.2,5.6-20.9,9.2-32.7,9.2C919.7,239,898.5,213.8,898.5,177.2z"/>
		<g>
			<path class="st0" d="M187.4,234.8l-46.8-70.7c23-15.1,37.8-41,37.8-70.4c0-45.8-36.6-83.7-85-83.7C45.3,10,7.7,47.6,7.7,93.7
				v141.1h32.4V160c14.5,11.2,32.8,18,53.3,18c4.8,0,9.4-0.5,14-1.2l38.4,57.9L187.4,234.8L187.4,234.8z"/>
			<circle class="st1" cx="93" cy="94" r="64.3"/>
		</g>
	</g>
	<g>
		<path class="st0" d="M0,341c0-37.5,29.5-67.2,66.2-67.2c22.3,0,42.7,11.5,52.6,30.5l-16.1,9.3c-7.6-13-20.6-21-37.3-21
			c-25.2,0-45.1,21-45.1,48.4c0,27.8,19.6,48.9,45.1,48.9c16.7,0,29.9-8,37.3-21l16.1,9.3c-9.9,19-30.3,30.3-52.6,30.3
			C29.5,408.6,0,378.9,0,341z"/>
		<path class="st0" d="M124.5,358.5c0-27.4,22.3-49.7,50.9-49.7c28.7,0,50.5,22.5,50.5,49.7c0,27.6-21.9,50.1-50.5,50.1
			C146.7,408.6,124.5,386.1,124.5,358.5z M206.7,358.7c0-17.5-13.6-31.9-31.3-31.9c-17.9,0-31.7,14.4-31.7,31.9
			c0,17.3,13.8,31.7,31.7,31.7C193.1,390.4,206.7,376,206.7,358.7z"/>
		<path class="st0" d="M397.7,356.2v50.1h-19.2v-47c0-17.3-8.5-32.4-26.4-32.4c-17.3,0-26,14.6-26,32v47.4h-19.2v-47.4
			c0-17.5-8.7-32-26.4-32c-17.9,0-25.8,15.1-25.8,32.4v47h-19.2v-49.9c0-26.6,15.1-48,43.7-48c19,0,32.8,9.7,37.7,24.5
			c5.2-14.8,18.6-24.5,36.7-24.5C382.2,308.4,397.7,329.8,397.7,356.2z"/>
		<path class="st0" d="M413.2,450v-91.5c0-28.4,21.9-49.7,50.7-49.7c28.7,0,50.5,22.5,50.5,49.7c0,28.7-20.8,50.1-49.7,50.1
			c-12.8,0-24.5-5.6-32.2-14.2V450H413.2z M495.1,358.7c0-17.5-13.6-31.7-31.3-31.7c-17.9,0-31.5,14.2-31.5,31.7
			c0,17.3,13.6,31.9,31.5,31.9C481.5,390.6,495.1,376,495.1,358.7z"/>
		<path class="st0" d="M547.6,267.4v138.9h-19.2V267.4H547.6z"/>
		<path class="st0" d="M561.8,279.7c0-7,5.6-12.8,12.6-12.8s12.4,5.8,12.4,12.8s-5.4,12.6-12.4,12.6S561.8,286.7,561.8,279.7z
			 M584.1,311.1v95.2h-19.2v-95.2L584.1,311.1L584.1,311.1z"/>
		<path class="st0" d="M594.8,358.5c0-27.2,21.8-49.7,50.7-49.7c28.7,0,50.7,21.4,50.7,49.7v47.8H678v-16.7
			c-7.2,11.7-19.8,19-35.3,19C615,408.6,594.8,386.1,594.8,358.5z M677,358.7c0-17.5-13.6-31.9-31.5-31.9
			c-17.7,0-31.5,14.4-31.5,31.9c0,17.3,13.8,31.7,31.5,31.7C663.4,390.4,677,376,677,358.7z"/>
		<path class="st0" d="M728.4,360.3v46h-19.2v-48c0-27.8,16.5-49.5,47.2-49.5c31.1,0,48,21.8,48,49.3v48.2h-19.2v-45.8
			c0-17.9-9.7-33.2-28.7-33.2C737.8,327.3,728.4,342.6,728.4,360.3z"/>
		<path class="st0" d="M811.4,358.5c0-27.4,22.3-49.9,49.7-49.7c17.5,0,33.6,8,42.3,25.1l-15.9,8.9c-5.6-10.3-15.1-15.7-26.4-15.7
			c-16.7,0-30.5,14.2-30.5,31.5c0,17.5,13.8,31.9,30.5,31.9c11.3,0,20.8-5.4,26.4-15.7l15.9,8.7c-8.7,17.3-24.9,25.1-42.3,25.1
			C833.7,408.8,811.4,386.1,811.4,358.5z"/>
		<path class="st0" d="M905.2,358.1c0-27.4,19.6-49.7,48.2-49.7c28.7,0,46.6,20.8,46.6,47.4v7.8h-76.1c2.1,16.3,14.6,27.8,31.7,27.8
			c11.7,0,22.1-5,27.8-15.5l14.8,7.6c-8.4,16.3-23.7,25.1-42.3,25.1C926.8,408.4,905.2,387.5,905.2,358.1z M980.8,351.1
			c-0.8-15.1-11.8-25.4-27.6-25.4c-16.1,0-26.6,11.3-28.5,25.4H980.8z"/>
	</g>
</g>
</svg>
