<?xml version="1.0" encoding="utf-8"?>
<!-- Generator: Adobe Illustrator 22.0.0, SVG Export Plug-In . SVG Version: 6.00 Build 0)  -->
<svg version="1.1" id="Layer_1" xmlns="http://www.w3.org/2000/svg" xmlns:xlink="http://www.w3.org/1999/xlink" x="0px" y="0px"
	 viewBox="0 0 1200 1200" style="enable-background:new 0 0 1200 1200;" xml:space="preserve">
<style type="text/css">
	.st0{fill:#FFFFFF;}
</style>
<path class="st0" d="M784.6,762.4c89.6-58.9,147.3-159.9,147.3-274.2c0-178.3-142.6-326-331.1-326c-187.2,0-333.7,146.5-333.7,326
	c0,0,0,0,0,0v549.6h126.1V746.3c56.5,44,128.1,70.5,207.6,70.5c18.6,0,36.7-1.8,54.4-4.7l149.5,225.7H967L784.6,762.4z M599.4,739.9
	C461.1,739.9,349,627.8,349,489.5s112.1-250.4,250.4-250.4s250.4,112.1,250.4,250.4S737.7,739.9,599.4,739.9z"/>
</svg>
